<?xml version="1.0" encoding="utf-8"?>
<!-- Generator: Adobe Illustrator 23.0.1, SVG Export Plug-In . SVG Version: 6.00 Build 0)  -->
<svg version="1.1" id="Layer_1" xmlns="http://www.w3.org/2000/svg" xmlns:xlink="http://www.w3.org/1999/xlink" x="0px" y="0px"
	 width="1739px" height="935px" viewBox="0 0 1739 935" style="enable-background:new 0 0 1739 935;" xml:space="preserve">
<style type="text/css">
	.st0{fill:#F9E808;}
</style>
<g>
	<path class="st0" d="M1540.1,124.2c-107.6,0-107.6-76.7-215.1-76.7c-107.1,0-107.6,76.1-213.9,76.7
		c-106.3-0.6-106.7-76.7-213.9-76.7c-0.4,0-0.8,0-1.3,0c-0.4,0-0.8,0-1.3,0c-107.1,0-107.6,76.1-213.9,76.7
		C574.6,123.5,574.1,47.5,467,47.5c-107.6,0-107.6,76.7-215.1,76.7S144.3,47.5,36.7,47.5c-13.6,0-25.5,1.2-36.2,3.4v881.9h1738.1
		V48.1C1647.4,55.6,1641.9,124.2,1540.1,124.2z"/>
</g>
</svg>
