<?xml version="1.0" encoding="iso-8859-1"?>
<!-- Generator: Adobe Illustrator 23.0.1, SVG Export Plug-In . SVG Version: 6.00 Build 0)  -->
<svg version="1.1" id="Layer_1" xmlns="http://www.w3.org/2000/svg" xmlns:xlink="http://www.w3.org/1999/xlink" x="0px" y="0px"
	 width="394px" height="292px" viewBox="0 0 394 292" enable-background="new 0 0 394 292" xml:space="preserve">
<g>
	<path fill="#E4007E" d="M388.141,260.118c-0.063-0.621-2.635-24.464-24.611-35.794c7.827-3.884,16.519-9.854,20.064-18.221
		c0,0,5.114-10.064,5.904-27.514h-34.471c0,0-6.533,20.266-22.27,21.343v-21.343h-41.868L290.928,288h44.204v-39.443
		c0,0,19.004,6.466,19.746,24.15c0,0-0.114,12.142,0,15.293h34.62C389.498,288,391.057,274.281,388.141,260.118z"/>
	<path fill="#E4007E" d="M242.098,178.589v20.207v15.981c-2.508,0-4.774-0.914-6.404-2.386l-0.001,0.002l-0.035-0.037
		c-0.267-0.244-0.512-0.506-0.743-0.779l-31.488-32.988h-24.729V288h42.791v-12.656v-20.585c4.049,0,7.611,1.849,9.681,4.647
		l0.002,0.001L254.746,288h24.481V178.589H242.098z"/>
	<path fill="#E4007E" d="M54.78,178.364c-0.229,0-0.456,0.004-0.684,0.006v-0.006H4.264v109.411h49.832v-43.759
		c0.228,0.002,0.455,0.006,0.684,0.006c26.539,0,48.054-14.698,48.054-32.829S81.32,178.364,54.78,178.364z M59.142,219.185H49.81
		h-0.374h-6.479v-12.807h6.853v0.008C59.326,206.379,62.449,215.664,59.142,219.185z"/>
	<path fill="#E4007E" d="M113.317,74.847c10.606-7.372,17.15-17.48,17.15-28.633c0-21.75-24.879-39.528-56.256-40.782V5.358H4.264
		v153.575h69.947v-0.008c0.32,0.003,0.639,0.008,0.96,0.008c37.252,0,67.451-20.631,67.451-46.08
		C142.622,97.075,131.014,83.153,113.317,74.847z M58.633,35.387h9.619v0.011c13.357-0.011,17.74,13.022,13.099,17.965H68.252
		h-0.525h-9.094V35.387z M68.166,118.017h-0.525h-9.094v-17.977h9.619v0.011c11.25,0.241,20.287,8.189,20.287,17.965H68.166z"/>
	<path fill="#E4007E" d="M376.323,5.055L315.365,5c0,0-22.016,0.576-41.721,11.702c0,0-21.212,10.207-24.444,34.414v63.122
		c0,0,3.902,27.897,39.566,39.611c0,0,29.059,10.493,62.683,1.374c0,0,19.989-3.733,31.652-20.061c0,0,7.054-9.79,7.131-18.574
		l0.077-39.639h-52.325v38.34H327.4c0,0-8.101,0.635-7.645-5.034V60.002c0,0-0.736-7.699,8.896-7.66h47.671L376.323,5.055z"/>
	<g>
		<rect x="110.54" y="178.589" fill="#E4007E" width="56.496" height="47.98"/>
		<rect x="110.54" y="240.02" fill="#E4007E" width="56.496" height="47.98"/>
	</g>
	<g>
		<rect x="155.204" y="5" fill="#E4007E" width="79.711" height="70.42"/>
		<rect x="155.204" y="88.87" fill="#E4007E" width="79.711" height="70.062"/>
	</g>
</g>
<g>
</g>
<g>
</g>
<g>
</g>
<g>
</g>
<g>
</g>
<g>
</g>
<g>
</g>
<g>
</g>
<g>
</g>
<g>
</g>
<g>
</g>
<g>
</g>
<g>
</g>
<g>
</g>
<g>
</g>
</svg>
