<?xml version="1.0" encoding="iso-8859-1"?>
<!-- Generator: Adobe Illustrator 23.0.1, SVG Export Plug-In . SVG Version: 6.00 Build 0)  -->
<svg version="1.1" id="Layer_1" xmlns="http://www.w3.org/2000/svg" xmlns:xlink="http://www.w3.org/1999/xlink" x="0px" y="0px"
	 width="500px" height="361px" viewBox="0 0 500 361" enable-background="new 0 0 500 361" xml:space="preserve">
<g>
	<path fill="#E4007E" d="M476.353,315.601c-0.076-0.743-3.157-29.305-29.481-42.877c9.376-4.653,19.787-11.804,24.034-21.826
		c0,0,6.126-12.055,7.073-32.959h-41.293c0,0-7.825,24.276-26.677,25.567v-25.567h-50.153L359.904,349h52.951v-47.248
		c0,0,22.765,7.745,23.654,28.928c0,0-0.137,14.545,0,18.319h41.471C477.979,349,479.846,332.566,476.353,315.601z"/>
	<path fill="#E4007E" d="M301.411,217.939v24.205v19.144c-3.004,0-5.718-1.095-7.672-2.859l-0.001,0.002l-0.042-0.044
		c-0.32-0.292-0.614-0.606-0.89-0.933l-37.719-39.515h-29.622V349h51.259v-15.161v-24.658c4.851,0,9.117,2.214,11.597,5.566
		l0.003,0.001L316.562,349h29.325V217.939H301.411z"/>
	<path fill="#E4007E" d="M77.027,217.669c-0.274,0-0.546,0.004-0.819,0.007v-0.007H16.514v131.061h59.693v-52.418
		c0.273,0.003,0.546,0.007,0.819,0.007c31.791,0,57.563-17.606,57.563-39.325S108.818,217.669,77.027,217.669z M82.252,266.568
		H71.073h-0.448h-7.761v-15.341h8.209v0.01C82.473,251.227,86.213,262.35,82.252,266.568z"/>
	<path fill="#E4007E" d="M147.146,93.668c12.704-8.831,20.544-20.939,20.544-34.299c0-26.054-29.803-47.349-67.388-48.852v-0.088
		H16.514v183.964h83.788v-0.01c0.383,0.004,0.766,0.01,1.15,0.01c44.623,0,80.798-24.713,80.798-55.198
		C182.251,120.295,168.345,103.618,147.146,93.668z M81.642,46.4h11.522v0.014c16-0.014,21.25,15.599,15.691,21.52H93.164h-0.629
		H81.642V46.4z M93.061,145.381h-0.629H81.539v-21.534h11.522v0.014c13.477,0.289,24.301,9.809,24.301,21.52H93.061z"/>
	<path fill="#E4007E" d="M462.196,10.066L389.176,10c0,0-26.372,0.69-49.976,14.018c0,0-25.409,12.226-29.281,41.223v75.612
		c0,0,4.674,33.418,47.396,47.449c0,0,34.809,12.569,75.087,1.646c0,0,23.944-4.472,37.915-24.031c0,0,8.45-11.727,8.542-22.25
		l0.092-47.483h-62.679v45.926h-12.678c0,0-9.704,0.76-9.158-6.03V75.886c0,0-0.882-9.222,10.656-9.176h57.104L462.196,10.066z"/>
	<g>
		<rect x="143.821" y="217.939" fill="#E4007E" width="67.675" height="57.475"/>
		<rect x="143.821" y="291.525" fill="#E4007E" width="67.675" height="57.475"/>
	</g>
	<g>
		<rect x="197.322" y="10" fill="#E4007E" width="95.484" height="84.354"/>
		<rect x="197.322" y="110.467" fill="#E4007E" width="95.484" height="83.926"/>
	</g>
</g>
<g>
</g>
<g>
</g>
<g>
</g>
<g>
</g>
<g>
</g>
<g>
</g>
<g>
</g>
<g>
</g>
<g>
</g>
<g>
</g>
<g>
</g>
<g>
</g>
<g>
</g>
<g>
</g>
<g>
</g>
</svg>
