<?xml version="1.0" encoding="iso-8859-1"?>
<!-- Generator: Adobe Illustrator 23.0.1, SVG Export Plug-In . SVG Version: 6.00 Build 0)  -->
<svg version="1.1" id="Layer_1" xmlns="http://www.w3.org/2000/svg" xmlns:xlink="http://www.w3.org/1999/xlink" x="0px" y="0px"
	 width="811px" height="324px" viewBox="0 0 811 324" enable-background="new 0 0 811 324" xml:space="preserve">
<g>
	<g>
		<g>
			<rect x="363.046" y="123.698" width="4.917" height="71.186"/>
			<g>
				<rect x="612.872" y="123.698" width="4.917" height="71.186"/>
				<rect x="620.656" y="189.964" width="31.479" height="4.92"/>
			</g>
			<g>
				<path d="M511.83,189.964l-0.963-0.056c-6.345-0.383-11.16-3.555-13.544-8.94l-0.416-0.93l-4.541,1.947l0.393,0.939
					c3.003,7.131,9.566,11.483,17.99,11.904l1.081,0.052l0.88,0.004l0.07-0.004v-4.906l-0.07,0.004L511.83,189.964z"/>
				<g>
					<path d="M515.72,128.74c5.853,0.654,10.29,3.706,12.523,8.73l0.413,0.924l4.548-1.948l-0.408-0.942
						c-2.9-6.805-9.107-11.009-17.078-11.703V128.74z"/>
					<path d="M513.597,156.91c-7.594-2.661-16.315-6.643-16.315-13.932c0-7.909,6.008-13.808,14.61-14.364l0.888-0.052v-4.914
						l-1.009,0.055c-11.247,0.609-19.406,8.72-19.406,19.275c0,10.45,10.475,15.403,19.604,18.542
						c7.594,2.665,16.316,6.648,16.316,13.937c0,7.215-5.08,12.809-12.565,14.178v5.002c10.238-1.392,17.485-9.193,17.485-19.18
						C533.206,165.002,522.721,160.046,513.597,156.91z"/>
				</g>
			</g>
			<g>
				<path d="M542.727,158.173c0.986-16.032,14.217-28.527,30.36-28.527c16.086,0,29.28,12.495,30.261,28.527h4.936
					c-1.006-18.785-16.372-33.446-35.196-33.446c-18.882,0-34.298,14.66-35.292,33.446H542.727z"/>
				<path d="M608.283,161.113h-4.936c-0.991,16.035-14.175,28.533-30.261,28.533c-16.143,0-29.371-12.498-30.36-28.533h-4.932
					c0.994,18.788,16.41,33.451,35.292,33.451C591.911,194.564,607.277,179.901,608.283,161.113z"/>
			</g>
			<g>
				<path d="M658.326,149.865c5.372-15.134,21.537-23.492,37.051-19.039c15.467,4.442,24.69,20.088,21.22,35.772l4.734,1.355
					c4.222-18.33-6.505-36.659-24.593-41.853c-18.145-5.215-37.006,4.622-43.149,22.406L658.326,149.865z"/>
				<path d="M720.52,170.781l-4.734-1.359c-5.379,15.143-21.504,23.511-36.966,19.069c-15.518-4.453-24.784-20.113-21.308-35.8
					l-4.734-1.358c-4.229,18.329,6.54,36.675,24.686,41.887C695.552,198.413,714.376,188.564,720.52,170.781z"/>
			</g>
			<g>
				<path d="M378.826,124.694H377.8v70.19h4.921v-70.488l-1.13,0.107C380.624,124.603,379.621,124.694,378.826,124.694z"/>
				<polygon points="405.47,168.234 400.443,169.779 419.371,194.884 425.532,194.884 				"/>
				<path d="M398.527,124.396h-12.939v4.959h12.939c10.087,0,18.294,8.207,18.294,18.297c0,10.089-8.207,18.29-18.294,18.29h-12.939
					v4.967h12.939c12.845,0,23.261-10.411,23.261-23.257C421.788,134.809,411.372,124.396,398.527,124.396z"/>
			</g>
			<g>
				<polygon points="435.656,194.884 457.578,134.705 454.948,127.804 430.45,194.884 				"/>
				<polygon points="461.49,123.649 456.326,123.649 456.272,123.801 473.393,171.153 475.303,176.074 482.22,194.884 
					487.447,194.884 				"/>
			</g>
			<polygon points="475.177,166.195 449.289,166.195 447.482,171.111 477.094,171.111 			"/>
			<g>
				<path d="M316.916,167.432v4.993h26.198c0.754-1.587,1.37-3.254,1.824-4.993H316.916z"/>
				<path d="M341.584,180.277c-0.024,0.039-0.047,0.066-0.076,0.105c-0.452,0.541-0.916,1.065-1.4,1.582
					c-0.085,0.092-0.18,0.192-0.27,0.276c-1.386,1.437-2.895,2.734-4.52,3.88c-0.229,0.164-0.451,0.331-0.685,0.489
					c-0.414,0.276-0.842,0.534-1.273,0.793c-0.345,0.215-0.693,0.416-1.053,0.612c-0.392,0.217-0.79,0.431-1.189,0.634
					c-0.464,0.227-0.934,0.442-1.41,0.648c-0.331,0.144-0.653,0.301-0.988,0.431c-0.797,0.317-1.608,0.599-2.436,0.854
					c-0.274,0.088-0.558,0.151-0.837,0.225c-0.618,0.176-1.235,0.327-1.864,0.466c-0.319,0.063-0.646,0.125-0.972,0.184
					c-0.634,0.108-1.272,0.209-1.925,0.279c-0.289,0.037-0.582,0.07-0.875,0.104c-0.939,0.078-1.882,0.135-2.845,0.135
					c-16.957,0-30.855-13.124-31.893-29.968v-0.022c0.024,0.356-0.007-0.638-0.007-1.492c0-0.904,0.057-1.797,0.13-2.687
					c1.57-16.296,15.193-28.861,31.77-28.861c12.611,0,23.514,7.313,28.676,18.015h5.622c-5.494-13.649-18.754-23.182-34.298-23.182
					c-19.833,0-36.02,15.403-37.067,35.137c0,0,0,1.044,0,1.578c0,0.498,0,1.513,0,1.513c1.048,19.73,17.234,35.133,37.067,35.133
					c1.137,0,2.261-0.063,3.371-0.161c0.354-0.033,0.705-0.085,1.052-0.13c0.762-0.088,1.514-0.194,2.259-0.324
					c0.392-0.076,0.78-0.156,1.171-0.24c0.71-0.15,1.405-0.327,2.098-0.511c0.369-0.111,0.736-0.206,1.1-0.317
					c0.782-0.246,1.549-0.518,2.308-0.814c0.241-0.095,0.495-0.173,0.736-0.272c0.974-0.405,1.925-0.845,2.857-1.323
					c0.289-0.148,0.563-0.318,0.847-0.472c0.648-0.353,1.282-0.721,1.899-1.107c0.355-0.217,0.698-0.452,1.041-0.684
					c0.537-0.369,1.062-0.741,1.577-1.132c0.343-0.261,0.684-0.523,1.017-0.795c0.515-0.419,1.007-0.854,1.492-1.296
					c0.298-0.263,0.603-0.525,0.885-0.805c0.718-0.685,1.409-1.402,2.065-2.147c0.222-0.251,0.418-0.521,0.634-0.774
					c0.464-0.56,0.924-1.125,1.36-1.714c0.269-0.364,0.518-0.741,0.775-1.117c0.338-0.498,0.67-0.995,0.982-1.51
					c0.25-0.403,0.492-0.824,0.728-1.243c0.288-0.515,0.565-1.042,0.832-1.577c0.208-0.423,0.425-0.845,0.62-1.273
					c0.286-0.626,0.534-1.273,0.785-1.913c0.137-0.354,0.291-0.703,0.418-1.064c0.005-0.012,0.009-0.024,0.014-0.04
					c0.284-0.814,0.523-1.646,0.751-2.488c0.213-0.811,0.405-1.637,0.57-2.465h-5.274
					C346.803,172.243,344.594,176.6,341.584,180.277z"/>
			</g>
		</g>
		<g>
			<path d="M252.894,165.523c0.34,0,0.681-0.119,0.955-0.359l5.844-5.121c0.593-0.521,0.661-1.421,0.153-2.025
				c-1.464-1.736-3.037-3.379-4.676-4.883c-0.291-0.268-0.685-0.399-1.076-0.379c-0.396,0.027-0.764,0.214-1.017,0.518l-5.064,6.067
				c-0.496,0.594-0.439,1.47,0.129,1.994c1.283,1.185,2.519,2.434,3.678,3.712C252.106,165.362,252.499,165.523,252.894,165.523z"/>
			<path d="M233.642,141.741c-0.359,0.171-0.63,0.482-0.754,0.86l-2.015,6.184c-0.231,0.711,0.116,1.48,0.8,1.779
				c1.273,0.554,2.542,1.16,3.771,1.803c0.21,0.109,0.439,0.164,0.672,0.164c0.153,0,0.307-0.024,0.455-0.074
				c0.372-0.123,0.68-0.392,0.85-0.746l2.943-6.099c0.348-0.719,0.048-1.585-0.671-1.934c-0.915-0.446-1.723-0.79-2.439-1.044
				l-2.471-0.941C234.414,141.551,234,141.571,233.642,141.741z"/>
			<path d="M240.519,155.362c1.15,0.758,2.276,1.556,3.35,2.376c0.253,0.194,0.564,0.297,0.879,0.297c0.066,0,0.134-0.004,0.2-0.014
				c0.384-0.053,0.729-0.258,0.961-0.566l4.357-5.821c0.237-0.317,0.335-0.716,0.27-1.106c-0.064-0.391-0.285-0.737-0.612-0.96
				l-2.087-1.427c-0.646-0.47-1.261-0.82-1.842-1.15l-0.485-0.278c-0.335-0.197-0.738-0.25-1.117-0.153
				c-0.377,0.102-0.698,0.353-0.888,0.694l-3.453,6.19C239.682,154.107,239.886,154.944,240.519,155.362z"/>
			<path d="M221.502,140.656l-0.62,5.08c-0.09,0.731,0.383,1.412,1.098,1.585c1.151,0.279,2.312,0.598,3.451,0.948
				c0.14,0.043,0.284,0.064,0.426,0.064c0.248,0,0.495-0.064,0.716-0.188c0.347-0.197,0.598-0.527,0.692-0.913l1.3-5.263
				c0.095-0.384,0.03-0.787-0.181-1.122c-0.209-0.333-0.547-0.566-0.932-0.647l-2.094-0.433c-0.777-0.183-1.537-0.288-2.241-0.374
				C222.315,139.299,221.598,139.863,221.502,140.656z"/>
			<path d="M209.338,233.011l-7.606-2.531c-0.733-0.242-1.524,0.127-1.807,0.844c-0.625,1.585-1.316,3.139-2.054,4.624
				c-0.353,0.71-0.071,1.57,0.633,1.934l7.002,3.619c0.213,0.109,0.441,0.162,0.665,0.162c0.515,0,1.014-0.275,1.276-0.76
				c1.052-1.94,1.989-3.954,2.786-5.986c0.144-0.37,0.13-0.784-0.039-1.143C210.025,233.412,209.717,233.138,209.338,233.011z"/>
			<path d="M212.177,210.67l-6.847,0.406c-0.741,0.044-1.329,0.641-1.362,1.381c-0.063,1.348-0.172,2.706-0.323,4.035
				c-0.045,0.391,0.071,0.785,0.323,1.089c0.25,0.304,0.615,0.492,1.008,0.522l7.282,0.551c0.037,0.003,0.072,0.004,0.109,0.004
				c0.357,0,0.704-0.132,0.97-0.372c0.295-0.265,0.467-0.639,0.48-1.036c0.049-1.735,0.014-3.495-0.106-5.234
				C213.655,211.223,213.015,210.627,212.177,210.67z"/>
			<path d="M211.971,222.159l-7.676-1.039c-0.741-0.094-1.452,0.391-1.612,1.131c-0.284,1.323-0.61,2.616-0.966,3.846
				c-0.108,0.372-0.06,0.773,0.129,1.11c0.188,0.339,0.505,0.588,0.879,0.69l7.632,2.098c0.128,0.035,0.256,0.053,0.385,0.053
				c0.253,0,0.503-0.066,0.726-0.195c0.335-0.195,0.581-0.516,0.677-0.892c0.436-1.686,0.795-3.415,1.064-5.141
				c0.059-0.385-0.038-0.779-0.271-1.091C212.706,222.417,212.358,222.212,211.971,222.159z"/>
			<path d="M204.426,206.894c0.261,0.215,0.587,0.329,0.921,0.329c0.064,0,0.128-0.004,0.191-0.013l5.911-0.785
				c0.401-0.052,0.761-0.27,0.994-0.602c0.233-0.329,0.317-0.741,0.234-1.137c-0.304-1.424-0.666-2.843-1.078-4.217
				c-0.222-0.747-0.992-1.187-1.752-0.987l-5.193,1.342c-0.705,0.181-1.166,0.858-1.076,1.58c0.139,1.135,0.247,2.299,0.322,3.46
				C203.926,206.267,204.117,206.639,204.426,206.894z"/>
			<path d="M180.055,235.776c-0.633-0.452-1.5-0.328-1.979,0.276c-1.06,1.335-2.168,2.612-3.29,3.797
				c-0.542,0.575-0.527,1.479,0.039,2.032l5.627,5.525c0.282,0.276,0.648,0.415,1.016,0.415c0.368,0,0.736-0.139,1.018-0.417
				c1.565-1.545,3.039-3.189,4.382-4.888c0.247-0.311,0.354-0.71,0.298-1.102c-0.055-0.394-0.27-0.747-0.592-0.977L180.055,235.776z
				"/>
			<path d="M186.74,224.944l6.785,2.668c0.171,0.066,0.351,0.101,0.531,0.101c0.208,0,0.417-0.046,0.61-0.134
				c0.359-0.167,0.635-0.474,0.763-0.851c0.551-1.628,1.029-3.309,1.423-4.995c0.181-0.774-0.296-1.549-1.068-1.739l-6.653-1.627
				c-0.722-0.178-1.459,0.222-1.709,0.919c-0.452,1.261-0.95,2.515-1.48,3.729c-0.159,0.361-0.163,0.77-0.011,1.134
				C186.081,224.512,186.373,224.799,186.74,224.944z"/>
			<path d="M192.994,231.695c-0.13-0.366-0.403-0.665-0.756-0.827l-6.975-3.23c-0.72-0.335-1.571-0.027-1.917,0.687l-0.117,0.253
				c-0.203,0.436-0.454,0.98-0.802,1.529l-0.966,1.668c-0.39,0.673-0.18,1.532,0.474,1.949l6.479,4.132
				c0.235,0.15,0.507,0.228,0.78,0.228c0.109,0,0.218-0.012,0.326-0.036c0.379-0.088,0.708-0.325,0.911-0.656
				c0.907-1.48,1.749-3.019,2.503-4.577C193.103,232.465,193.125,232.061,192.994,231.695z"/>
			<path d="M198.015,214.445c0.129-1.426,0.2-2.876,0.211-4.313c0.006-0.779-0.604-1.424-1.384-1.46l-5.358-0.247
				c-0.735-0.068-1.367,0.477-1.494,1.195c-0.197,1.104-0.432,2.235-0.702,3.367c-0.094,0.391-0.02,0.803,0.201,1.137
				c0.222,0.335,0.572,0.563,0.969,0.63l5.871,0.99c0.079,0.013,0.16,0.02,0.241,0.02c0.319,0,0.63-0.105,0.885-0.302
				C197.776,215.217,197.979,214.847,198.015,214.445z"/>
			<path d="M157.842,234.443c-0.469-0.615-1.339-0.754-1.976-0.316c-1.368,0.941-2.793,1.834-4.236,2.658
				c-0.684,0.39-0.93,1.254-0.556,1.948l3.761,6.962c0.262,0.485,0.762,0.761,1.278,0.761c0.227,0,0.458-0.054,0.672-0.166
				c1.933-1.016,3.814-2.157,5.593-3.392c0.326-0.226,0.544-0.575,0.606-0.966c0.061-0.391-0.04-0.789-0.279-1.104L157.842,234.443z
				"/>
			<path d="M173.052,230.613c0.26,0.207,0.578,0.317,0.905,0.317c0.066,0,0.132-0.004,0.198-0.015
				c0.393-0.053,0.748-0.267,0.979-0.591c0.998-1.391,1.942-2.85,2.803-4.338c0.398-0.685,0.17-1.563-0.51-1.971l-5.887-3.522
				c-0.641-0.383-1.463-0.218-1.908,0.378c-0.789,1.056-1.624,2.103-2.486,3.107c-0.255,0.299-0.379,0.688-0.341,1.08
				c0.037,0.391,0.231,0.751,0.538,0.996L173.052,230.613z"/>
			<path d="M170.982,235.412c0.263-0.285,0.402-0.665,0.385-1.051c-0.019-0.388-0.191-0.754-0.479-1.013l-5.565-5.006
				c-0.594-0.534-1.689-0.282-2.227,0.304c-0.302,0.337-0.717,0.798-1.212,1.221l-1.414,1.307c-0.571,0.528-0.624,1.412-0.12,2.004
				l4.856,5.718c0.252,0.297,0.613,0.479,1.003,0.507c0.034,0.003,0.068,0.004,0.102,0.004c0.354,0,0.697-0.129,0.963-0.366
				C168.563,237.898,169.81,236.677,170.982,235.412z"/>
			<path d="M179.831,220.28c0.173,0,0.346-0.031,0.51-0.091c0.379-0.143,0.681-0.438,0.834-0.813
				c0.537-1.323,1.025-2.678,1.454-4.028c0.234-0.742-0.159-1.538-0.892-1.803l-5.058-1.818c-0.68-0.245-1.446,0.053-1.78,0.704
				c-0.52,1.013-1.072,2.017-1.642,2.988c-0.202,0.346-0.253,0.76-0.14,1.145c0.113,0.384,0.381,0.705,0.739,0.885l5.324,2.678
				C179.384,220.228,179.608,220.28,179.831,220.28z"/>
			<path d="M228.955,219.14l-8.014-0.179c-0.011,0-0.022,0-0.033,0c-0.756,0-1.386,0.581-1.446,1.337
				c-0.132,1.686-0.338,3.39-0.616,5.064c-0.131,0.783,0.393,1.525,1.173,1.665l7.757,1.394c0.086,0.016,0.172,0.022,0.258,0.022
				c0.677,0,1.28-0.476,1.42-1.163c0.441-2.174,0.748-4.389,0.914-6.582c0.029-0.397-0.105-0.789-0.372-1.084
				C229.73,219.321,229.354,219.15,228.955,219.14z"/>
			<path d="M225.081,196.843l-6.424,2.407c-0.695,0.261-1.082,1.004-0.895,1.723c0.341,1.316,0.641,2.658,0.888,3.989
				c0.072,0.386,0.3,0.729,0.63,0.946c0.238,0.156,0.516,0.238,0.796,0.238c0.108,0,0.216-0.011,0.322-0.035l7.125-1.62
				c0.387-0.089,0.72-0.33,0.923-0.672c0.203-0.34,0.259-0.748,0.153-1.129c-0.466-1.687-1.023-3.372-1.657-5.011
				C226.654,196.935,225.819,196.567,225.081,196.843z"/>
			<path d="M229.378,208.2c-0.313-0.231-0.707-0.322-1.093-0.26l-7.647,1.271c-0.745,0.123-1.27,0.798-1.206,1.552
				c0.112,1.33,0.18,2.675,0.201,3.998c0.007,0.388,0.169,0.758,0.449,1.025c0.271,0.258,0.629,0.401,1.001,0.401
				c0.015,0,0.03,0,0.044,0l7.924-0.243c0.388-0.013,0.754-0.18,1.019-0.463c0.264-0.285,0.403-0.663,0.385-1.051
				c-0.077-1.749-0.243-3.522-0.498-5.267C229.902,208.776,229.692,208.429,229.378,208.2z"/>
			<path d="M217.1,195.613c0.207,0,0.416-0.044,0.606-0.134l5.415-2.493c0.366-0.168,0.647-0.483,0.773-0.868
				c0.124-0.384,0.084-0.803-0.114-1.155c-0.705-1.265-1.477-2.523-2.294-3.74c-0.433-0.645-1.3-0.835-1.964-0.427l-4.56,2.812
				c-0.621,0.382-0.861,1.166-0.562,1.829c0.469,1.042,0.922,2.133,1.345,3.244c0.145,0.373,0.436,0.672,0.808,0.824
				C216.728,195.576,216.915,195.613,217.1,195.613z"/>
			<path d="M237.234,210.238c0.058,0,0.117-0.003,0.177-0.011l7.868-0.959c0.782-0.096,1.346-0.798,1.267-1.581
				c-0.219-2.224-0.58-4.451-1.073-6.615c-0.088-0.388-0.331-0.724-0.674-0.927c-0.342-0.202-0.754-0.254-1.136-0.147l-7.758,2.205
				c-0.741,0.211-1.187,0.963-1.018,1.714c0.379,1.685,0.685,3.389,0.91,5.063C235.895,209.708,236.517,210.238,237.234,210.238z"/>
			<path d="M238.363,184.435c-0.507-0.886-0.98-1.627-1.428-2.236l-1.078-1.542l-0.525-0.672c-0.493-0.623-1.394-0.734-2.024-0.249
				l-5.451,4.209c-0.588,0.454-0.738,1.28-0.346,1.913c0.716,1.155,1.406,2.361,2.048,3.579c0.185,0.348,0.502,0.607,0.879,0.718
				c0.134,0.038,0.269,0.056,0.404,0.056c0.253,0,0.502-0.065,0.724-0.194l6.261-3.607
				C238.519,186.013,238.759,185.13,238.363,184.435z"/>
			<path d="M242.617,196.964c0.374-0.129,0.68-0.404,0.846-0.762c0.166-0.359,0.178-0.771,0.035-1.139l-0.938-2.396
				c-0.258-0.727-0.591-1.401-0.855-1.939l-0.064-0.133l-0.184-0.379c-0.167-0.354-0.469-0.625-0.839-0.754
				c-0.368-0.125-0.772-0.103-1.123,0.073l-6.772,3.387c-0.677,0.338-0.979,1.14-0.696,1.841c0.506,1.252,0.973,2.53,1.386,3.797
				c0.121,0.368,0.384,0.674,0.731,0.847c0.203,0.102,0.425,0.153,0.648,0.153c0.159,0,0.317-0.025,0.47-0.078L242.617,196.964z"/>
			<path d="M230.612,175.724c0.014-0.394-0.132-0.776-0.405-1.06l-1.492-1.545c-0.114-0.123-0.206-0.213-0.306-0.309l-0.255-0.245
				c-0.368-0.312-0.767-0.642-1.186-0.977c-0.606-0.49-1.486-0.411-1.999,0.173l-3.537,4.035c-0.481,0.55-0.479,1.373,0.006,1.919
				c0.778,0.875,1.541,1.79,2.27,2.718c0.247,0.315,0.615,0.513,1.014,0.548c0.042,0.004,0.084,0.005,0.126,0.005
				c0.356,0,0.701-0.13,0.967-0.369l4.315-3.865C230.423,176.489,230.597,176.118,230.612,175.724z"/>
			<path d="M256.252,185.754c0.72-0.322,1.051-1.16,0.745-1.886c-0.871-2.073-1.88-4.102-2.995-6.03
				c-0.198-0.344-0.531-0.592-0.917-0.684c-0.381-0.092-0.792-0.024-1.128,0.194l-6.69,4.344c-0.646,0.421-0.851,1.272-0.466,1.941
				c0.862,1.498,1.667,3.049,2.389,4.607c0.245,0.528,0.769,0.84,1.317,0.84c0.197,0,0.397-0.041,0.591-0.126L256.252,185.754z"/>
			<path d="M235.378,171.337c0.272,0.272,0.64,0.423,1.023,0.423c0.009,0,0.019,0,0.028,0c0.393-0.007,0.767-0.174,1.035-0.463
				l4.749-5.11c0.544-0.585,0.513-1.5-0.071-2.046c-0.748-0.698-1.417-1.266-2.021-1.712l-2.086-1.631
				c-0.313-0.244-0.721-0.347-1.104-0.292c-0.394,0.058-0.745,0.275-0.974,0.599l-3.858,5.471c-0.428,0.609-0.327,1.445,0.237,1.932
				C233.371,169.405,234.396,170.357,235.378,171.337z"/>
			<path d="M241.797,178.941c0.224,0.316,0.565,0.529,0.947,0.592c0.078,0.015,0.157,0.02,0.235,0.02
				c0.304,0,0.603-0.096,0.852-0.278l6.069-4.414c0.32-0.232,0.531-0.586,0.585-0.977c0.053-0.392-0.056-0.789-0.303-1.097
				l-1.604-2.017c-0.468-0.625-0.979-1.164-1.382-1.592l-0.399-0.428c-0.263-0.286-0.632-0.456-1.021-0.467
				c-0.383-0.041-0.768,0.13-1.049,0.401l-5.283,5.05c-0.547,0.524-0.599,1.381-0.119,1.967
				C240.185,176.751,241.016,177.842,241.797,178.941z"/>
			<path d="M232.17,158.102c-0.103-0.381-0.355-0.704-0.701-0.894l-1.878-1.034c-0.704-0.411-1.422-0.744-2.032-1.016
				c-0.731-0.325-1.587,0.004-1.913,0.734l-2.146,4.8c-0.298,0.668-0.053,1.456,0.577,1.834c1.005,0.606,2.014,1.256,2.998,1.93
				c0.244,0.166,0.529,0.253,0.82,0.253c0.103,0,0.207-0.012,0.309-0.033c0.39-0.085,0.729-0.329,0.935-0.67l2.875-4.781
				C232.216,158.888,232.273,158.484,232.17,158.102z"/>
			<path d="M137.087,226.62c-0.266-0.728-1.052-1.117-1.797-0.884c-1.544,0.488-3.164,0.923-4.815,1.293
				c-0.767,0.173-1.256,0.925-1.104,1.697l1.554,7.832c0.136,0.691,0.742,1.168,1.421,1.168c0.09,0,0.183-0.009,0.276-0.027
				c2.131-0.411,4.262-0.959,6.328-1.63c0.376-0.122,0.685-0.391,0.857-0.745s0.192-0.763,0.057-1.135L137.087,226.62z"/>
			<path d="M153.664,228.024c0.078,0.013,0.154,0.019,0.231,0.019c0.317,0,0.627-0.103,0.882-0.301
				c1.358-1.041,2.678-2.16,3.923-3.324c0.578-0.54,0.616-1.442,0.09-2.03l-4.589-5.104c-0.503-0.553-1.338-0.64-1.937-0.198
				c-0.558,0.41-1.129,0.813-1.712,1.211c-0.041,0.028-0.08,0.058-0.119,0.09c-0.413,0.35-0.885,0.707-1.402,1.06
				c-0.661,0.452-0.831,1.352-0.382,2.013l4.047,5.947C152.92,227.737,153.27,227.96,153.664,228.024z"/>
			<path d="M142.809,233.055c0.154,0.36,0.447,0.643,0.812,0.784c0.168,0.064,0.345,0.097,0.521,0.097
				c0.208,0,0.415-0.044,0.608-0.134c1.549-0.714,3.093-1.521,4.587-2.395c0.333-0.197,0.575-0.516,0.672-0.892
				c0.096-0.374,0.038-0.773-0.16-1.104l-3.777-6.322c-0.41-0.69-1.303-0.908-1.986-0.503l-0.231,0.138
				c-0.414,0.246-0.928,0.552-1.518,0.807l-1.737,0.834c-0.702,0.336-1.011,1.165-0.706,1.878L142.809,233.055z"/>
			<path d="M162.582,219.58c0.03,0,0.059-0.002,0.09-0.003c0.405-0.026,0.782-0.218,1.036-0.535c0.904-1.113,1.762-2.26,2.549-3.41
				c0.441-0.64,0.298-1.512-0.324-1.979l-4.295-3.23c-0.582-0.438-1.404-0.377-1.915,0.151c-0.803,0.833-1.611,1.624-2.413,2.369
				c-0.293,0.272-0.46,0.652-0.465,1.051c-0.003,0.399,0.157,0.782,0.445,1.058l4.287,4.121
				C161.849,219.435,162.208,219.58,162.582,219.58z"/>
			<path d="M96.319,146.388c-0.446-0.636-1.314-0.807-1.97-0.387l-6.689,4.29c-0.326,0.21-0.555,0.541-0.636,0.92
				c-0.081,0.379-0.004,0.776,0.209,1.1c1.211,1.833,2.546,3.604,3.97,5.267c0.253,0.296,0.614,0.477,1.003,0.504
				c0.032,0.001,0.066,0.003,0.099,0.003c0.354,0,0.697-0.129,0.963-0.365l5.981-5.308c0.586-0.521,0.653-1.416,0.147-2.017
				C98.325,149.119,97.29,147.771,96.319,146.388z"/>
			<path d="M110.603,160.659c-0.319-0.221-0.71-0.315-1.094-0.238c-0.381,0.069-0.718,0.288-0.938,0.609l-4.043,5.921
				c-0.228,0.333-0.306,0.746-0.215,1.14c0.089,0.394,0.34,0.732,0.69,0.935c1.473,0.847,3.011,1.634,4.574,2.342
				c0.193,0.088,0.397,0.129,0.596,0.129c0.534,0,1.045-0.294,1.299-0.8l2.997-5.984c0.338-0.677,0.1-1.5-0.547-1.891
				C112.789,162.137,111.673,161.409,110.603,160.659z"/>
			<path d="M102.934,154.584c-0.568-0.528-1.451-0.514-2.005,0.03l-5.427,5.355c-0.283,0.279-0.439,0.661-0.432,1.058
				c0.007,0.397,0.176,0.772,0.467,1.041c1.278,1.176,2.62,2.297,3.991,3.333c0.262,0.197,0.568,0.291,0.873,0.291
				c0.435,0,0.863-0.194,1.148-0.563l4.574-5.916c0.486-0.627,0.375-1.531-0.246-2.024l-0.221-0.17
				c-0.379-0.293-0.851-0.659-1.311-1.123L102.934,154.584z"/>
			<path d="M120.864,174.975c0.639,0,1.22-0.423,1.396-1.062l1.375-4.958c0.198-0.713-0.174-1.463-0.862-1.736
				c-1.047-0.415-2.08-0.86-3.095-1.329c-0.358-0.167-0.77-0.181-1.137-0.035c-0.368,0.144-0.661,0.433-0.813,0.797l-2.197,5.324
				c-0.156,0.381-0.144,0.81,0.034,1.181c0.177,0.371,0.506,0.648,0.899,0.765c1.334,0.389,2.714,0.733,4.101,1.024
				C120.668,174.965,120.767,174.975,120.864,174.975z"/>
			<path d="M102.244,123.618l-7.652,2.127c-0.374,0.105-0.691,0.354-0.879,0.694c-0.188,0.34-0.234,0.741-0.123,1.113
				c0.625,2.126,1.388,4.226,2.266,6.24c0.156,0.357,0.448,0.636,0.81,0.775c0.167,0.064,0.344,0.096,0.519,0.096
				c0.206,0,0.41-0.044,0.601-0.13l7.278-3.31c0.717-0.325,1.042-1.163,0.734-1.888c-0.663-1.559-1.265-3.164-1.786-4.768
				C103.772,123.83,102.993,123.415,102.244,123.618z"/>
			<path d="M113.547,142.474c-0.24-0.304-0.589-0.501-0.973-0.547c-0.381-0.045-0.772,0.066-1.073,0.306l-5.591,4.453
				c-0.317,0.252-0.514,0.626-0.542,1.029c-0.03,0.403,0.112,0.801,0.388,1.097c1.176,1.252,2.424,2.46,3.712,3.59
				c0.275,0.242,0.616,0.361,0.957,0.361c0.382,0,0.763-0.15,1.048-0.447l4.605-4.812c0.524-0.548,0.538-1.407,0.031-1.972
				C115.225,144.548,114.363,143.518,113.547,142.474z"/>
			<path d="M98.555,138.23c-0.11,0.381-0.058,0.791,0.143,1.134c0.879,1.5,1.844,2.973,2.866,4.378
				c0.283,0.389,0.725,0.596,1.174,0.596c0.289,0,0.579-0.087,0.834-0.265l6.235-4.391c0.632-0.444,0.803-1.307,0.39-1.96
				c-0.711-1.126-1.385-2.273-2.001-3.41c-0.377-0.695-1.245-0.963-1.943-0.595l-6.975,3.627
				C98.927,137.528,98.665,137.848,98.555,138.23z"/>
			<path d="M115.006,154.719c-0.263,0.317-0.378,0.732-0.316,1.14c0.061,0.408,0.293,0.77,0.638,0.997
				c1.167,0.763,2.392,1.497,3.641,2.181c0.221,0.12,0.46,0.179,0.695,0.179c0.48,0,0.947-0.238,1.222-0.669l2.75-4.294
				c0.402-0.626,0.263-1.456-0.32-1.918c-0.869-0.691-1.742-1.423-2.59-2.179c-0.293-0.261-0.688-0.394-1.075-0.363
				c-0.392,0.03-0.756,0.218-1.007,0.523L115.006,154.719z"/>
			<path d="M107.803,113.32c0.256,0.201,0.572,0.309,0.895,0.309c0.061,0,0.123-0.004,0.184-0.011l7.951-1.02
				c0.782-0.101,1.34-0.806,1.259-1.588c-0.177-1.705-0.281-3.43-0.307-5.13c-0.013-0.776-0.633-1.405-1.409-1.428l-7.958-0.224
				c-0.389,0.01-0.765,0.135-1.045,0.404c-0.28,0.269-0.441,0.638-0.446,1.026c-0.03,2.227,0.081,4.474,0.33,6.682
				C107.3,112.728,107.497,113.079,107.803,113.32z"/>
			<path d="M113.108,127.689c-0.377,0.147-0.676,0.446-0.823,0.824c-0.146,0.378-0.127,0.801,0.051,1.166
				c0.762,1.551,1.61,3.081,2.519,4.551c0.273,0.442,0.748,0.687,1.235,0.687c0.239,0,0.482-0.06,0.704-0.183l5.822-3.243
				c0.664-0.37,0.929-1.189,0.61-1.877c-0.565-1.222-1.092-2.47-1.567-3.708c-0.137-0.361-0.413-0.651-0.767-0.809
				c-0.354-0.157-0.754-0.166-1.116-0.022L113.108,127.689z"/>
			<path d="M117.246,115.345l-7.755,1.416c-0.391,0.071-0.737,0.301-0.953,0.633c-0.218,0.333-0.289,0.741-0.197,1.127
				c0.402,1.702,0.895,3.404,1.466,5.061c0.206,0.601,0.768,0.979,1.371,0.979c0.149,0,0.301-0.023,0.449-0.071l7.271-2.365
				c0.735-0.239,1.154-1.014,0.95-1.76c-0.351-1.29-0.661-2.596-0.919-3.88C118.773,115.711,118.027,115.192,117.246,115.345z"/>
			<path d="M119.494,138.074c-0.346,0.227-0.578,0.591-0.639,1c-0.061,0.408,0.057,0.824,0.322,1.142
				c0.909,1.09,1.874,2.157,2.868,3.171c0.282,0.289,0.658,0.435,1.035,0.435c0.333,0,0.666-0.113,0.936-0.343l3.885-3.286
				c0.569-0.482,0.681-1.316,0.259-1.93c-0.64-0.928-1.263-1.892-1.855-2.865c-0.203-0.335-0.536-0.575-0.92-0.661
				c-0.381-0.088-0.788-0.011-1.115,0.203L119.494,138.074z"/>
			<path d="M87.854,176.823c0.034,0.387,0.222,0.742,0.521,0.988c1.675,1.387,3.46,2.685,5.302,3.86
				c0.235,0.15,0.507,0.228,0.78,0.228c0.109,0,0.219-0.013,0.328-0.038c0.38-0.088,0.708-0.326,0.911-0.659l4.151-6.832
				c0.406-0.67,0.208-1.541-0.447-1.968c-1.382-0.901-2.758-1.882-4.085-2.919c-0.616-0.479-1.497-0.385-2,0.208l-5.125,6.067
				C87.941,176.054,87.82,176.438,87.854,176.823z"/>
			<path d="M116.826,188.314l1.104-6.627c0.125-0.745-0.344-1.461-1.076-1.644c-0.521-0.132-1.038-0.269-1.648-0.44l-0.392-0.082
				c-0.521-0.093-1.13-0.247-1.808-0.456c-0.773-0.245-1.576,0.191-1.813,0.957l-2.083,6.738c-0.119,0.384-0.074,0.802,0.127,1.15
				c0.201,0.35,0.538,0.599,0.931,0.691c1.642,0.379,3.338,0.686,5.039,0.91c0.064,0.009,0.129,0.013,0.191,0.013
				C116.095,189.526,116.708,189.021,116.826,188.314z"/>
			<path d="M99.12,184.706c1.545,0.746,3.148,1.426,4.764,2.019c0.165,0.061,0.335,0.09,0.5,0.09c0.588,0,1.14-0.36,1.358-0.941
				l2.57-6.852c0.279-0.745-0.093-1.576-0.835-1.862l-0.258-0.098c-0.477-0.18-1.017-0.384-1.582-0.684l-1.736-0.838
				c-0.7-0.337-1.541-0.063-1.908,0.619l-3.521,6.555c-0.187,0.348-0.224,0.759-0.102,1.134
				C98.493,184.224,98.763,184.535,99.12,184.706z"/>
			<path d="M123.119,181.331c-0.762-0.035-1.445,0.543-1.517,1.316l-0.531,5.734c-0.037,0.408,0.099,0.813,0.377,1.115
				c0.275,0.299,0.663,0.469,1.068,0.469c0.004,0,0.008,0,0.013,0c1.386-0.011,2.804-0.081,4.212-0.204
				c0.764-0.066,1.344-0.718,1.323-1.486l-0.147-5.199c-0.022-0.739-0.595-1.344-1.331-1.404c-0.956-0.078-1.905-0.18-2.955-0.315
				L123.119,181.331z"/>
			<path d="M103.459,204.09c0.253,0,0.506-0.066,0.729-0.197c0.337-0.196,0.582-0.52,0.677-0.899l1.963-7.797
				c0.191-0.758-0.253-1.53-1.004-1.748c-1.572-0.453-3.164-0.988-4.733-1.59c-0.731-0.278-1.549,0.067-1.854,0.785l-3.131,7.359
				c-0.152,0.356-0.154,0.758-0.009,1.116c0.146,0.357,0.429,0.642,0.786,0.79c1.953,0.813,4.035,1.53,6.187,2.127
				C103.198,204.072,103.329,204.09,103.459,204.09z"/>
			<path d="M120.74,205.899c0.033,0,0.065-0.001,0.098-0.003c1.684-0.113,3.394-0.313,5.083-0.592
				c0.773-0.128,1.306-0.847,1.201-1.625l-0.904-6.709c-0.101-0.744-0.779-1.276-1.522-1.254l-2.085,0.154
				c-0.524,0.064-1.151,0.097-1.865,0.097c-0.8,0-1.45,0.648-1.45,1.448l-0.006,7.032c0,0.402,0.166,0.785,0.459,1.061
				C120.019,205.761,120.373,205.899,120.74,205.899z"/>
			<path d="M109.145,205.383c1.718,0.269,3.446,0.454,5.136,0.553c0.028,0.001,0.057,0.003,0.085,0.003
				c0.762,0,1.401-0.593,1.446-1.364l0.436-7.266c0.048-0.796-0.557-1.481-1.353-1.534l-0.284-0.016
				c-0.506-0.031-1.079-0.067-1.704-0.187l-1.902-0.289c-0.769-0.112-1.493,0.392-1.642,1.154l-1.417,7.234
				c-0.075,0.386,0.01,0.787,0.235,1.11C108.409,205.103,108.756,205.322,109.145,205.383z"/>
			<path d="M131.894,203.485c0.225,0.132,0.477,0.198,0.732,0.198c0.147,0,0.295-0.023,0.438-0.068
				c1.301-0.41,2.638-0.894,3.97-1.433c0.713-0.288,1.077-1.082,0.83-1.811l-1.69-4.971c-0.238-0.697-0.961-1.113-1.676-0.95
				c-0.83,0.177-1.677,0.339-2.642,0.507l-0.778,0.197c-0.754,0.191-1.223,0.943-1.063,1.704l1.191,5.674
				C131.291,202.932,131.542,203.278,131.894,203.485z"/>
			<path d="M119.583,213.191c-0.041-0.791-0.706-1.452-1.502-1.373c-1.446,0.047-2.901,0.005-4.943-0.145
				c-0.804-0.068-1.47,0.517-1.551,1.298l-0.812,7.841c-0.04,0.383,0.075,0.765,0.317,1.064c0.243,0.298,0.595,0.488,0.977,0.528
				c1.792,0.185,3.617,0.279,5.423,0.279c0.364,0,0.726-0.004,1.089-0.011c0.392-0.009,0.765-0.176,1.032-0.463
				c0.268-0.288,0.407-0.672,0.387-1.064L119.583,213.191z"/>
			<path d="M134.207,218.378c0.117,0.383,0.388,0.7,0.748,0.876c0.202,0.099,0.42,0.148,0.639,0.148c0.173,0,0.346-0.031,0.51-0.092
				c1.6-0.602,3.179-1.283,4.694-2.028c0.708-0.347,1.008-1.195,0.677-1.911l-2.847-6.156c-0.311-0.676-1.085-1.004-1.787-0.762
				c-0.024,0.007-0.184,0.064-0.208,0.073l-1.758,0.711c-0.503,0.222-1.096,0.439-1.763,0.644c-0.766,0.237-1.195,1.048-0.96,1.813
				L134.207,218.378z"/>
			<path d="M123.685,221.896c0.256,0.199,0.573,0.307,0.894,0.307c0.067,0,0.133-0.004,0.2-0.014
				c1.69-0.235,3.394-0.557,5.064-0.956c0.375-0.091,0.699-0.326,0.9-0.654c0.202-0.33,0.262-0.725,0.172-1.1l-1.705-6.988
				c-0.19-0.774-1.021-1.239-1.79-1.056l-0.214,0.052c-0.47,0.114-1.056,0.257-1.698,0.325l-1.907,0.285
				c-0.767,0.116-1.308,0.816-1.226,1.588l0.763,7.221C123.179,221.297,123.377,221.654,123.685,221.896z"/>
			<path d="M145.062,213.108c0.197,0.356,0.535,0.614,0.93,0.709c0.112,0.027,0.225,0.04,0.338,0.04c0.286,0,0.57-0.085,0.81-0.248
				c1.175-0.79,2.323-1.633,3.41-2.499c0.607-0.483,0.725-1.358,0.271-1.986l-3.093-4.27c-0.428-0.592-1.236-0.771-1.877-0.418
				c-0.981,0.544-1.967,1.055-2.944,1.528c-0.045,0.023-0.132,0.072-0.174,0.099c-0.657,0.408-0.878,1.26-0.504,1.935
				L145.062,213.108z"/>
			<path d="M125.675,96.993l7.806,1.354c0.084,0.014,0.167,0.022,0.249,0.022c0.68,0,1.285-0.479,1.421-1.167
				c0.337-1.69,0.754-3.384,1.237-5.035c0.218-0.745-0.19-1.531-0.926-1.782l-7.491-2.545c-0.368-0.123-0.772-0.096-1.119,0.079
				c-0.348,0.176-0.61,0.483-0.729,0.854c-0.667,2.096-1.215,4.293-1.626,6.529c-0.071,0.381,0.015,0.773,0.236,1.091
				C124.955,96.711,125.294,96.926,125.675,96.993z"/>
			<path d="M133.669,111.568c-0.291-0.253-0.656-0.375-1.058-0.351l-7.008,0.519c-0.405,0.03-0.779,0.228-1.031,0.548
				c-0.252,0.319-0.358,0.729-0.293,1.13c0.279,1.718,0.647,3.438,1.092,5.112c0.172,0.647,0.756,1.078,1.4,1.078
				c0.099,0,0.202-0.01,0.302-0.032l6.367-1.347c0.744-0.157,1.24-0.861,1.137-1.614c-0.184-1.347-0.321-2.708-0.412-4.046
				C134.139,112.18,133.96,111.821,133.669,111.568z"/>
			<path d="M125.083,108.233c0.008,0,0.015,0,0.022,0l7.53-0.112c0.774-0.011,1.402-0.629,1.428-1.402
				c0.043-1.329,0.135-2.683,0.272-4.024c0.079-0.786-0.485-1.492-1.272-1.586l-7.716-0.922c-0.388-0.05-0.788,0.069-1.092,0.32
				c-0.306,0.25-0.496,0.614-0.525,1.01l-0.126,1.67c-0.038,1.135-0.027,2.331,0.031,3.66
				C123.669,107.623,124.309,108.233,125.083,108.233z"/>
			<path d="M135.827,123.062c-0.097-0.381-0.344-0.705-0.685-0.901c-0.341-0.197-0.746-0.247-1.123-0.136l-5.311,1.535
				c-0.398,0.115-0.728,0.395-0.906,0.769c-0.178,0.372-0.189,0.806-0.028,1.187c0.555,1.32,1.168,2.627,1.823,3.886
				c0.257,0.493,0.76,0.78,1.286,0.78c0.191,0,0.384-0.037,0.568-0.116l4.501-1.916c0.686-0.292,1.039-1.058,0.816-1.769
				C136.426,125.297,136.11,124.181,135.827,123.062z"/>
			<path d="M217.607,101.389c0.141,0.684,0.742,1.158,1.419,1.158c0.078,0,0.157-0.006,0.236-0.02
				c1.723-0.283,3.488-0.493,5.247-0.624c0.784-0.058,1.379-0.729,1.342-1.514l-0.37-7.905c-0.037-0.797-0.746-1.436-1.51-1.381
				c-2.274,0.096-4.562,0.341-6.799,0.728c-0.386,0.067-0.729,0.287-0.95,0.612c-0.221,0.325-0.302,0.724-0.222,1.109
				L217.607,101.389z"/>
			<path d="M202.178,99.145c-0.347-0.719-1.214-1.026-1.931-0.68c-0.914,0.436-1.687,0.853-2.335,1.256l-2.277,1.345
				c-0.341,0.203-0.586,0.535-0.675,0.922c-0.09,0.387-0.016,0.793,0.203,1.124l3.55,5.387c0.278,0.422,0.739,0.653,1.212,0.653
				c0.236,0,0.474-0.058,0.695-0.178c1.218-0.667,2.475-1.3,3.742-1.882c0.353-0.162,0.626-0.459,0.758-0.826
				c0.131-0.366,0.112-0.769-0.057-1.12L202.178,99.145z"/>
			<path d="M214.825,101.928l-1.768-6.772c-0.101-0.382-0.352-0.707-0.697-0.899c-0.345-0.193-0.756-0.237-1.133-0.12l-2.456,0.756
				c-0.741,0.203-1.408,0.47-1.997,0.708l-0.54,0.213c-0.362,0.14-0.654,0.422-0.809,0.779c-0.153,0.358-0.157,0.764-0.009,1.123
				l2.607,6.359c0.229,0.56,0.768,0.901,1.342,0.901c0.156,0,0.313-0.025,0.469-0.078c1.314-0.449,2.645-0.853,3.956-1.2
				C214.564,103.492,215.026,102.701,214.825,101.928z"/>
			<path d="M190.984,105.544c-0.391-0.041-0.784,0.075-1.088,0.326l-1.649,1.371c-0.299,0.235-0.54,0.453-0.87,0.759
				c-0.263,0.285-0.536,0.588-0.816,0.904c-0.504,0.569-0.481,1.433,0.051,1.977l3.573,3.638c0.284,0.288,0.659,0.434,1.035,0.434
				c0.32,0,0.641-0.105,0.906-0.319c0.947-0.759,1.908-1.481,2.851-2.15c0.323-0.228,0.538-0.578,0.598-0.967
				c0.059-0.391-0.044-0.788-0.285-1.101l-3.319-4.314C191.732,105.789,191.375,105.588,190.984,105.544z"/>
			<path d="M234.801,108.323c-0.309,0.245-0.504,0.604-0.543,0.997l-0.776,7.967c-0.075,0.773,0.472,1.468,1.241,1.576
				c1.741,0.245,3.486,0.571,5.186,0.969c0.111,0.025,0.222,0.038,0.332,0.038c0.646,0,1.235-0.435,1.402-1.088l1.974-7.646
				c0.199-0.77-0.259-1.556-1.027-1.763c-2.202-0.592-4.454-1.047-6.695-1.35C235.507,107.974,235.11,108.077,234.801,108.323z"/>
			<path d="M211.664,111.155c-0.198,0.343-0.249,0.754-0.137,1.134l1.786,6.125c0.183,0.629,0.76,1.044,1.391,1.044
				c0.095,0,0.19-0.009,0.286-0.028c1.367-0.273,2.761-0.501,4.143-0.677c0.386-0.05,0.738-0.253,0.973-0.563
				c0.235-0.312,0.336-0.704,0.278-1.091l-0.98-6.534c-0.118-0.79-0.855-1.35-1.644-1.22c-1.001,0.146-1.863,0.316-2.603,0.511
				l-2.573,0.616C212.195,110.564,211.864,110.811,211.664,111.155z"/>
			<path d="M224.264,108.574c-0.39,0.027-0.751,0.21-1.004,0.507c-0.253,0.296-0.377,0.683-0.341,1.071l0.616,6.829
				c0.069,0.76,0.739,1.309,1.484,1.32c1.375-0.038,2.753-0.021,4.132,0.04c0.022,0.001,0.046,0.001,0.066,0.001
				c0.361,0,0.711-0.135,0.979-0.379c0.285-0.26,0.454-0.622,0.471-1.007l0.307-6.997c0.017-0.395-0.128-0.779-0.399-1.065
				c-0.273-0.286-0.65-0.447-1.045-0.449l-2.955-0.009c-0.583,0-1.156,0.045-1.751,0.095L224.264,108.574z"/>
			<path d="M201.642,115.15c-0.71,0.368-0.985,1.242-0.617,1.953l2.336,4.513c0.254,0.494,0.759,0.783,1.287,0.783
				c0.175,0,0.354-0.032,0.527-0.099c1.123-0.438,2.259-0.843,3.376-1.201c0.377-0.122,0.686-0.392,0.86-0.748
				c0.172-0.357,0.192-0.767,0.055-1.138l-1.867-5.011c-0.139-0.37-0.421-0.667-0.782-0.824c-0.36-0.157-0.769-0.159-1.134-0.01
				l-1.981,0.824C202.94,114.488,202.233,114.843,201.642,115.15z"/>
			<path d="M247.846,129.057c-0.37,0.143-0.664,0.429-0.817,0.794l-3.097,7.407c-0.299,0.714,0.017,1.537,0.716,1.87
				c1.595,0.757,3.158,1.586,4.644,2.461c0.231,0.136,0.485,0.201,0.735,0.201c0.487,0,0.963-0.245,1.236-0.69l4.141-6.727
				c0.415-0.674,0.212-1.556-0.454-1.983c-1.91-1.22-3.916-2.327-5.965-3.291C248.626,128.93,248.215,128.917,247.846,129.057z"/>
			<path d="M231.291,124.923c-1.011-0.156-1.884-0.247-2.634-0.278l-2.643-0.17c-0.397-0.016-0.786,0.112-1.078,0.382
				c-0.292,0.269-0.46,0.646-0.466,1.042l-0.099,6.398c-0.011,0.751,0.551,1.385,1.296,1.464c1.388,0.149,2.785,0.348,4.152,0.595
				c0.085,0.016,0.172,0.022,0.257,0.022c0.3,0,0.596-0.093,0.844-0.27c0.318-0.228,0.531-0.575,0.589-0.963l0.994-6.574
				C232.624,125.783,232.082,125.045,231.291,124.923z"/>
			<path d="M243.673,128.27c-0.177-0.353-0.49-0.619-0.867-0.737l-2.462-0.763c-0.735-0.251-1.458-0.41-2.04-0.537l-0.56-0.128
				c-0.385-0.092-0.782-0.024-1.112,0.184c-0.329,0.21-0.562,0.542-0.644,0.925l-1.442,6.784c-0.157,0.745,0.287,1.486,1.02,1.695
				c1.319,0.378,2.639,0.807,3.927,1.275c0.16,0.058,0.327,0.086,0.494,0.086c0.211,0,0.422-0.047,0.617-0.138
				c0.348-0.164,0.619-0.462,0.748-0.824l2.389-6.686C243.874,129.035,243.85,128.624,243.673,128.27z"/>
			<path d="M219.652,125.554c-0.299-0.256-0.694-0.382-1.082-0.343l-2.136,0.204c-0.812,0.057-1.591,0.187-2.247,0.304
				c-0.789,0.143-1.311,0.897-1.169,1.685l0.896,4.973c0.127,0.694,0.731,1.192,1.426,1.192c0.033,0,0.066-0.001,0.098-0.003
				c1.201-0.081,2.405-0.125,3.581-0.131c0.398-0.003,0.776-0.167,1.048-0.457c0.272-0.291,0.413-0.678,0.391-1.075l-0.304-5.33
				C220.131,126.178,219.95,125.81,219.652,125.554z"/>
			<path d="M197.786,90.95c0.264,0.48,0.76,0.754,1.273,0.754c0.22,0,0.442-0.05,0.652-0.155c1.55-0.782,3.17-1.508,4.814-2.16
				c0.726-0.289,1.095-1.103,0.829-1.839l-2.686-7.457c-0.13-0.363-0.399-0.657-0.748-0.821c-0.347-0.162-0.749-0.183-1.109-0.051
				c-2.13,0.77-4.236,1.689-6.261,2.733c-0.347,0.178-0.608,0.49-0.722,0.864c-0.115,0.375-0.073,0.779,0.115,1.122L197.786,90.95z"
				/>
			<path d="M182.354,93.308c-0.546-0.588-1.459-0.622-2.047-0.081c-0.741,0.683-1.375,1.327-1.86,1.888l-1.78,1.96
				c-0.266,0.293-0.403,0.684-0.372,1.079c0.028,0.395,0.218,0.762,0.524,1.015l5.096,4.196c0.269,0.221,0.597,0.33,0.923,0.33
				c0.38,0,0.761-0.15,1.045-0.445c0.953-0.99,1.961-1.966,2.995-2.899c0.287-0.259,0.46-0.624,0.477-1.011
				c0.017-0.388-0.122-0.767-0.384-1.051L182.354,93.308z"/>
			<path d="M189.525,85.853l-2.124,1.446c-0.655,0.418-1.236,0.89-1.801,1.348l-0.341,0.273c-0.309,0.24-0.507,0.596-0.551,0.984
				c-0.042,0.39,0.073,0.779,0.322,1.081l4.434,5.393c0.286,0.348,0.701,0.53,1.122,0.53c0.297,0,0.598-0.092,0.855-0.281
				c1.116-0.817,2.261-1.599,3.407-2.321c0.674-0.425,0.879-1.313,0.46-1.99l-3.733-6.028c-0.209-0.337-0.546-0.573-0.932-0.656
				C190.253,85.55,189.851,85.63,189.525,85.853z"/>
			<path d="M173.541,102.72c-0.387,0.074-0.727,0.302-0.941,0.632l-0.658,1.02c-0.497,0.947-0.981,1.948-1.44,2.972
				c-0.312,0.693-0.035,1.508,0.635,1.87l4.459,2.408c0.218,0.117,0.454,0.174,0.687,0.174c0.469,0,0.925-0.227,1.204-0.639
				c0.665-0.984,1.361-1.953,2.071-2.881c0.238-0.313,0.34-0.71,0.28-1.099c-0.06-0.39-0.273-0.738-0.595-0.966l-4.591-3.25
				C174.328,102.734,173.93,102.648,173.541,102.72z"/>
			<path d="M175.839,86.874c0.282,0.273,0.646,0.409,1.01,0.409s0.728-0.136,1.01-0.409c1.238-1.201,2.562-2.374,3.934-3.484
				c0.608-0.491,0.717-1.375,0.247-1.999l-4.801-6.382c-0.233-0.309-0.578-0.511-0.96-0.563c-0.382-0.057-0.769,0.048-1.078,0.282
				c-1.796,1.369-3.526,2.875-5.142,4.475c-0.278,0.275-0.432,0.649-0.431,1.038c0.002,0.389,0.16,0.762,0.441,1.034L175.839,86.874
				z"/>
			<path d="M167.743,97.079l-6.057-3.505c-0.691-0.4-1.575-0.166-1.98,0.524c-0.514,0.884-0.919,1.664-1.222,2.354l-0.405,0.872
				c-0.22,0.553-0.436,1.126-0.643,1.702c-0.262,0.731,0.097,1.537,0.815,1.831l6.186,2.541c0.179,0.074,0.366,0.109,0.551,0.109
				c0.534,0,1.045-0.296,1.297-0.802c0.608-1.215,1.274-2.439,1.981-3.634c0.197-0.333,0.253-0.731,0.154-1.106
				C168.32,97.592,168.077,97.273,167.743,97.079z"/>
			<path d="M163.16,88.535c-0.22,0.32-0.303,0.717-0.228,1.099c0.074,0.382,0.299,0.718,0.624,0.933l5.985,3.95
				c0.245,0.162,0.522,0.239,0.797,0.239c0.446,0,0.886-0.205,1.17-0.591c0.798-1.085,1.654-2.165,2.542-3.212
				c0.514-0.605,0.447-1.51-0.152-2.033l-5.471-4.773c-0.297-0.259-0.69-0.388-1.082-0.351c-0.393,0.036-0.756,0.23-1.004,0.538
				l-1.608,2.012c-0.497,0.584-0.913,1.205-1.246,1.701L163.16,88.535z"/>
			<path d="M156.126,105.241c-0.359,0.207-0.61,0.558-0.693,0.963c-0.29,1.417-0.527,2.872-0.704,4.326
				c-0.09,0.752,0.414,1.449,1.159,1.596l4.981,0.989c0.095,0.02,0.19,0.028,0.283,0.028c0.628,0,1.2-0.409,1.387-1.031
				c0.334-1.109,0.709-2.231,1.114-3.338c0.136-0.369,0.116-0.778-0.057-1.132c-0.171-0.354-0.479-0.623-0.852-0.745l-5.439-1.782
				C156.911,104.987,156.483,105.033,156.126,105.241z"/>
			<path d="M146.636,85.799l7.09,3.612c0.21,0.107,0.435,0.159,0.657,0.159c0.516,0,1.012-0.275,1.276-0.758
				c0.824-1.517,1.732-3.022,2.696-4.473c0.431-0.648,0.273-1.521-0.357-1.977l-6.398-4.634c-0.315-0.229-0.705-0.317-1.088-0.256
				c-0.382,0.063-0.723,0.276-0.947,0.592c-1.304,1.841-2.499,3.781-3.552,5.764c-0.181,0.343-0.218,0.747-0.101,1.116
				C146.028,85.315,146.29,85.623,146.636,85.799z"/>
			<path d="M141.199,107.892l6.577,0.596c0.044,0.004,0.088,0.006,0.132,0.006c0.702,0,1.312-0.508,1.429-1.215
				c0.221-1.336,0.493-2.689,0.807-4.022c0.09-0.377,0.026-0.772-0.179-1.1c-0.204-0.329-0.53-0.561-0.906-0.647l-6.93-1.587
				c-0.397-0.091-0.811-0.012-1.146,0.218c-0.334,0.229-0.556,0.589-0.615,0.99c-0.247,1.735-0.412,3.504-0.487,5.255
				C139.846,107.158,140.426,107.821,141.199,107.892z"/>
			<path d="M142.881,96.463l7.122,2.079c0.135,0.04,0.272,0.058,0.406,0.058c0.603,0,1.164-0.378,1.371-0.975
				c0.447-1.289,0.938-2.566,1.461-3.794c0.31-0.729-0.022-1.572-0.745-1.893l-6.851-3.044c-0.36-0.16-0.77-0.167-1.138-0.017
				c-0.366,0.15-0.654,0.442-0.799,0.81l-0.947,2.399c-0.305,0.716-0.519,1.435-0.69,2.004l-0.164,0.537
				c-0.119,0.372-0.084,0.778,0.099,1.125C142.189,96.096,142.506,96.353,142.881,96.463z"/>
			<g>
				<path d="M210.154,141.356l0.21,3.056c0.052,0.726,0.63,1.303,1.357,1.348c1.245,0.078,2.486,0.194,3.694,0.344
					c0.059,0.007,0.121,0.012,0.179,0.012c0.339,0,0.67-0.119,0.932-0.338c0.309-0.26,0.496-0.636,0.517-1.038l0.196-3.862
					c0.02-0.415-0.138-0.817-0.432-1.109c-0.297-0.289-0.707-0.423-1.116-0.412c-1.463,0.101-2.912,0.258-4.304,0.466
					C210.638,139.934,210.103,140.602,210.154,141.356z"/>
				<path d="M202.398,195.889c0.095,0.396,0.351,0.733,0.708,0.929c0.216,0.121,0.458,0.181,0.701,0.181
					c0.156,0,0.311-0.025,0.462-0.075l3.901-1.31c0.39-0.132,0.705-0.421,0.868-0.798c0.164-0.378,0.159-0.806-0.01-1.179
					c-0.598-1.307-1.242-2.587-1.917-3.801c-0.371-0.67-1.197-0.935-1.889-0.606l-3.022,1.433c-0.652,0.309-0.976,1.048-0.765,1.738
					C201.807,193.607,202.121,194.749,202.398,195.889z"/>
				<path d="M192.229,204.603c0.011,0,0.024,0,0.035,0l4.117-0.1c0.41-0.01,0.798-0.194,1.065-0.506
					c0.268-0.311,0.391-0.722,0.339-1.129c-0.179-1.383-0.416-2.781-0.703-4.161c-0.156-0.751-0.867-1.26-1.627-1.139l-3.321,0.48
					c-0.713,0.102-1.242,0.714-1.242,1.435c0,1.233-0.037,2.405-0.11,3.579c-0.026,0.406,0.121,0.804,0.402,1.098
					C191.458,204.444,191.835,204.603,192.229,204.603z"/>
				<path d="M183.679,209.269c0.348-0.221,0.586-0.578,0.654-0.983c0.237-1.379,0.421-2.775,0.548-4.15
					c0.071-0.763-0.463-1.448-1.219-1.567l-3.332-0.522c-0.713-0.102-1.399,0.317-1.612,1.007c-0.359,1.17-0.735,2.268-1.146,3.359
					c-0.142,0.379-0.12,0.803,0.063,1.166c0.183,0.362,0.51,0.632,0.902,0.742l3.976,1.118c0.128,0.035,0.26,0.054,0.392,0.054
					C183.176,209.493,183.445,209.416,183.679,209.269z"/>
				<path d="M216.756,183.587c0.333-0.24,0.549-0.61,0.595-1.02c0.046-0.409-0.086-0.816-0.359-1.124
					c-0.948-1.06-1.95-2.098-2.981-3.083c-0.553-0.525-1.417-0.534-1.981-0.02l-2.447,2.243c-0.533,0.489-0.625,1.293-0.217,1.889
					c0.709,1.033,1.351,2.037,1.967,3.072c0.208,0.348,0.552,0.595,0.95,0.677c0.097,0.022,0.197,0.032,0.296,0.032
					c0.302,0,0.598-0.094,0.848-0.272L216.756,183.587z"/>
				<path d="M217.854,173.351c0.404-0.038,0.772-0.244,1.017-0.566l2.476-3.266c0.25-0.329,0.347-0.749,0.268-1.154
					c-0.079-0.405-0.328-0.758-0.681-0.969c-1.232-0.733-2.508-1.427-3.794-2.062c-0.683-0.34-1.51-0.089-1.893,0.568l-1.667,2.848
					c-0.366,0.623-0.216,1.42,0.353,1.87c0.975,0.772,1.923,1.569,2.814,2.367c0.267,0.241,0.613,0.371,0.968,0.371
					C217.761,173.358,217.807,173.355,217.854,173.351z"/>
				<path d="M216.243,152.078c-0.737-0.113-1.462,0.361-1.636,1.101l-0.73,3.11c-0.166,0.705,0.215,1.425,0.892,1.685
					c1.161,0.446,2.309,0.928,3.411,1.432c0.191,0.088,0.397,0.132,0.604,0.132c0.19,0,0.381-0.037,0.559-0.112
					c0.374-0.156,0.665-0.461,0.803-0.841l1.369-3.757c0.141-0.389,0.11-0.818-0.085-1.182c-0.196-0.365-0.537-0.629-0.939-0.725
					C219.081,152.582,217.651,152.299,216.243,152.078z"/>
				<path d="M168.639,210.19c0.128,0,0.256-0.017,0.381-0.051c0.397-0.108,0.73-0.381,0.915-0.749
					c0.62-1.234,1.198-2.508,1.719-3.786c0.289-0.707-0.02-1.515-0.705-1.851l-3.002-1.467c-0.649-0.316-1.43-0.109-1.836,0.488
					c-0.683,1.001-1.378,1.96-2.067,2.849c-0.247,0.322-0.351,0.733-0.282,1.132c0.068,0.401,0.301,0.754,0.641,0.974l3.448,2.229
					C168.088,210.11,168.363,210.19,168.639,210.19z"/>
				<path d="M131.595,176.09l0.247-0.001c0.745-0.016,1.357-0.591,1.417-1.333l0.251-3.092c0.058-0.726-0.43-1.384-1.144-1.536
					c-1.139-0.242-2.278-0.52-3.387-0.824c-0.392-0.111-0.804-0.048-1.144,0.163c-0.342,0.21-0.582,0.554-0.663,0.948l-0.767,3.797
					c-0.082,0.408,0.016,0.833,0.266,1.164c0.252,0.332,0.635,0.54,1.049,0.569c1.323,0.096,2.621,0.146,3.862,0.146H131.595z"/>
				<path d="M124.785,160.026c-0.2,0.367-0.232,0.802-0.088,1.194c0.143,0.392,0.45,0.702,0.84,0.854
					c1.148,0.442,2.293,0.84,3.4,1.179l0.51,0.153c0.132,0.037,0.266,0.055,0.398,0.055c0.58,0,1.122-0.35,1.347-0.912l1.141-2.858
					c0.272-0.683-0.009-1.46-0.653-1.811c-1.07-0.582-2.055-1.157-3.017-1.759c-0.339-0.212-0.752-0.273-1.135-0.174
					c-0.389,0.102-0.716,0.358-0.907,0.71L124.785,160.026z"/>
				<path d="M130.191,150.213l0.633,0.419c0.243,0.16,0.52,0.237,0.792,0.237c0.427,0,0.846-0.187,1.13-0.54l1.902-2.355
					c0.461-0.571,0.422-1.398-0.09-1.923c-0.816-0.837-1.617-1.71-2.382-2.592c-0.26-0.302-0.636-0.483-1.036-0.5
					c-0.385-0.014-0.787,0.132-1.073,0.411l-2.731,2.662c-0.3,0.292-0.459,0.7-0.435,1.117c0.022,0.418,0.225,0.806,0.555,1.064
					C128.359,148.918,129.278,149.591,130.191,150.213z"/>
				<path d="M132.706,188.408c0.249,0.179,0.547,0.274,0.85,0.274c0.106,0,0.21-0.011,0.316-0.035
					c1.355-0.302,2.689-0.654,3.967-1.047c0.722-0.222,1.153-0.961,0.99-1.7l-0.687-3.098c-0.157-0.71-0.82-1.202-1.539-1.13
					c-1.163,0.099-2.333,0.166-3.475,0.197c-0.403,0.011-0.784,0.19-1.049,0.492c-0.266,0.303-0.394,0.702-0.354,1.102l0.39,3.913
					C132.153,187.789,132.37,188.164,132.706,188.408z"/>
				<path d="M141.486,198.355c0.16,0.379,0.474,0.672,0.864,0.808c0.154,0.052,0.315,0.079,0.473,0.079
					c0.245,0,0.487-0.063,0.705-0.183c1.292-0.72,2.443-1.419,3.518-2.139c0.632-0.423,0.829-1.261,0.454-1.923l-1.612-2.831
					c-0.358-0.63-1.131-0.891-1.799-0.629c-1.084,0.435-2.184,0.838-3.272,1.199c-0.384,0.128-0.697,0.41-0.864,0.778
					c-0.166,0.368-0.172,0.79-0.016,1.162L141.486,198.355z"/>
				<path d="M153.721,206.157c0.266,0.316,0.653,0.504,1.065,0.517c0.016,0.002,0.031,0.002,0.047,0.002
					c0.397,0,0.776-0.162,1.049-0.449c0.959-1.007,1.878-2.047,2.732-3.094c0.481-0.59,0.425-1.452-0.13-1.973l-2.384-2.239
					c-0.527-0.499-1.336-0.526-1.9-0.074c-0.932,0.749-1.871,1.459-2.792,2.111c-0.329,0.234-0.548,0.595-0.6,0.998
					c-0.051,0.402,0.068,0.807,0.327,1.117L153.721,206.157z"/>
				<path d="M138.257,131.759c-0.378-0.131-0.791-0.106-1.148,0.077l-3.205,1.642c-0.373,0.191-0.646,0.534-0.746,0.941
					c-0.101,0.408-0.02,0.838,0.221,1.181c0.626,0.891,1.241,1.717,1.864,2.497c0.217,0.273,0.439,0.542,0.662,0.809
					c0.285,0.338,0.696,0.517,1.112,0.517c0.278,0,0.56-0.081,0.809-0.247l2.325-1.565c0.61-0.412,0.816-1.215,0.479-1.869
					c-0.544-1.051-1.06-2.129-1.532-3.201C138.936,132.176,138.632,131.892,138.257,131.759z"/>
				<path d="M187.166,119.074c0.284-0.283,0.435-0.67,0.422-1.071c-0.013-0.399-0.19-0.776-0.489-1.041l-2.855-2.521
					c-0.313-0.276-0.74-0.394-1.146-0.351c-0.415,0.054-0.787,0.285-1.02,0.632c-0.667,0.997-1.287,1.993-1.843,2.957
					c-0.14,0.24-0.274,0.484-0.407,0.728c-0.355,0.651-0.161,1.466,0.449,1.888l2.462,1.699c0.25,0.173,0.538,0.256,0.822,0.256
					c0.405,0,0.806-0.169,1.091-0.493C185.45,120.852,186.295,119.948,187.166,119.074z"/>
				<path d="M199.661,123.017l-2.008-3.286c-0.218-0.355-0.578-0.601-0.989-0.672c-0.408-0.067-0.831,0.037-1.157,0.299
					c-0.985,0.791-1.938,1.613-2.832,2.442c-0.15,0.139-0.296,0.278-0.441,0.419c-0.529,0.518-0.583,1.352-0.124,1.935l1.878,2.383
					c0.283,0.36,0.708,0.552,1.14,0.552c0.256,0,0.517-0.068,0.752-0.211c1.057-0.641,2.14-1.254,3.218-1.82
					c0.356-0.187,0.618-0.513,0.724-0.898C199.928,123.773,199.87,123.36,199.661,123.017z"/>
				<path d="M208.986,128.786c-0.102-0.404-0.372-0.744-0.742-0.933c-0.371-0.19-0.804-0.213-1.191-0.061
					c-1.278,0.5-2.523,1.041-3.716,1.616l-0.272,0.134c-0.668,0.334-0.973,1.122-0.704,1.82l1.122,2.906
					c0.22,0.569,0.765,0.927,1.353,0.927c0.115,0,0.232-0.014,0.348-0.042c1.217-0.302,2.436-0.564,3.624-0.78
					c0.397-0.071,0.744-0.305,0.961-0.643c0.217-0.338,0.284-0.751,0.185-1.14L208.986,128.786z"/>
				<path d="M168.748,113.315c-0.381,0.176-0.666,0.506-0.785,0.908c-0.316,1.07-0.597,2.141-0.837,3.186
					c-0.074,0.325-0.141,0.647-0.207,0.972c-0.146,0.726,0.28,1.445,0.985,1.668l2.827,0.891c0.145,0.045,0.291,0.066,0.436,0.066
					c0.56,0,1.085-0.324,1.324-0.858c0.496-1.11,1.031-2.216,1.592-3.288c0.185-0.353,0.216-0.768,0.085-1.145
					c-0.131-0.378-0.411-0.684-0.775-0.848l-3.444-1.555C169.565,113.136,169.129,113.139,168.748,113.315z"/>
				<path d="M154.493,120.978c0.028,0.368,0.06,0.735,0.097,1.103c0.074,0.739,0.692,1.303,1.435,1.308l2.973,0.017
					c0,0,0.006,0,0.009,0c0.734,0,1.353-0.548,1.44-1.277c0.143-1.198,0.326-2.401,0.541-3.576c0.072-0.392-0.02-0.798-0.256-1.119
					c-0.235-0.321-0.594-0.532-0.989-0.582l-3.757-0.473c-0.419-0.05-0.835,0.078-1.148,0.358c-0.313,0.28-0.489,0.682-0.483,1.102
					C154.369,118.907,154.416,119.957,154.493,120.978z"/>
				<path d="M148.393,122.915c-0.32-0.238-0.725-0.334-1.116-0.265l-3.678,0.646c-0.414,0.074-0.775,0.322-0.992,0.681
					c-0.216,0.36-0.267,0.796-0.137,1.195c0.334,1.034,0.692,2.036,1.069,2.998c0.128,0.32,0.256,0.636,0.39,0.951
					c0.232,0.548,0.766,0.886,1.336,0.886c0.139,0,0.28-0.02,0.419-0.063l2.806-0.848c0.705-0.212,1.139-0.92,1.009-1.645
					c-0.211-1.166-0.39-2.358-0.531-3.543C148.92,123.511,148.713,123.153,148.393,122.915z"/>
			</g>
			<path d="M147.203,112.312l-5.647-0.1c-0.425,0.018-0.81,0.163-1.092,0.467c-0.28,0.303-0.417,0.712-0.377,1.124
				c0.141,1.429,0.343,2.877,0.599,4.3c0.126,0.697,0.732,1.192,1.426,1.192c0.05,0,0.101-0.003,0.152-0.007l4.985-0.517
				c0.742-0.078,1.305-0.707,1.3-1.453c-0.009-1.148,0.018-2.32,0.078-3.482c0.02-0.392-0.121-0.776-0.388-1.063
				C147.97,112.485,147.597,112.319,147.203,112.312z"/>
			<g>
				<path d="M189.797,148.355c0.24,0.529,0.764,0.851,1.32,0.851c0.138,0,0.278-0.02,0.416-0.061
					c1.158-0.346,2.343-0.659,3.522-0.931c0.405-0.093,0.749-0.355,0.948-0.719c0.198-0.364,0.232-0.796,0.09-1.187l-0.341-0.946
					c-0.143-0.395-0.45-0.711-0.844-0.861c-0.395-0.151-0.833-0.125-1.205,0.076c-1.163,0.623-2.293,1.28-3.358,1.951
					C189.731,146.916,189.497,147.695,189.797,148.355z"/>
				<path d="M190.639,171.968c-0.503,0.52-0.544,1.331-0.097,1.901c0.987,1.257,1.936,2.576,2.821,3.92
					c0.231,0.35,0.6,0.583,1.016,0.64c0.065,0.008,0.13,0.013,0.195,0.013c0.348,0,0.69-0.126,0.954-0.358l1.02-0.892
					c0.315-0.275,0.494-0.671,0.496-1.089c0.002-0.418-0.179-0.814-0.491-1.091c-1.258-1.109-2.609-2.189-4.016-3.212
					C191.949,171.375,191.139,171.446,190.639,171.968z"/>
				<path d="M186.594,176.716c-0.633,0.35-0.91,1.114-0.652,1.789c0.586,1.528,1.117,3.112,1.578,4.706
					c0.116,0.403,0.403,0.736,0.783,0.914c0.194,0.089,0.403,0.135,0.61,0.135c0.203,0,0.404-0.043,0.592-0.126l1.272-0.57
					c0.381-0.17,0.668-0.496,0.793-0.893c0.123-0.398,0.071-0.829-0.146-1.184c-0.891-1.463-1.89-2.934-2.968-4.372
					C188.023,176.537,187.231,176.36,186.594,176.716z"/>
				<path d="M180.761,187.691c0.267,0.242,0.615,0.374,0.972,0.374c0.058,0,0.115-0.003,0.175-0.009l1.421-0.173
					c0.412-0.051,0.785-0.276,1.02-0.619c0.236-0.344,0.313-0.772,0.21-1.175c-0.424-1.685-0.96-3.431-1.592-5.189
					c-0.247-0.681-0.954-1.078-1.664-0.927c-0.708,0.148-1.198,0.797-1.148,1.517c0.116,1.685,0.16,3.402,0.128,5.099
					C180.275,187.007,180.449,187.411,180.761,187.691z"/>
				<path d="M198.427,171.179c0.412-0.069,0.777-0.314,0.995-0.671l0.682-1.11c0.22-0.356,0.273-0.789,0.15-1.187
					c-0.123-0.4-0.412-0.727-0.792-0.897c-1.479-0.66-3.03-1.269-4.612-1.808c-0.684-0.231-1.437,0.072-1.763,0.72
					c-0.326,0.646-0.126,1.433,0.469,1.845c1.261,0.874,2.511,1.817,3.712,2.8c0.262,0.214,0.586,0.329,0.919,0.329
					C198.268,171.199,198.347,171.192,198.427,171.179z"/>
				<path d="M200.827,162.15l0.309-1.197c0.103-0.406,0.028-0.837-0.21-1.182c-0.236-0.346-0.612-0.572-1.029-0.62
					c-1.526-0.177-3.101-0.292-4.677-0.338c-0.711-0.027-1.351,0.494-1.472,1.207c-0.122,0.713,0.301,1.408,0.99,1.626
					c1.375,0.436,2.769,0.938,4.145,1.489c0.172,0.071,0.357,0.105,0.54,0.105c0.225,0,0.448-0.053,0.654-0.156
					C200.448,162.894,200.722,162.553,200.827,162.15z"/>
				<path d="M192.627,153.893c0.094,0.718,0.703,1.256,1.428,1.262c1.357,0.01,2.733,0.067,4.088,0.172
					c0.037,0.003,0.074,0.004,0.11,0.004c0.376,0,0.74-0.146,1.01-0.41c0.298-0.29,0.459-0.694,0.439-1.11l-0.054-1.132
					c-0.02-0.419-0.221-0.809-0.551-1.07c-0.329-0.262-0.761-0.364-1.168-0.286c-1.423,0.27-2.852,0.6-4.247,0.981
					C192.984,152.497,192.532,153.174,192.627,153.893z"/>
				<path d="M175.158,189.709c0.324,0,0.642-0.109,0.9-0.315c0.328-0.259,0.527-0.646,0.548-1.061
					c0.086-1.714,0.09-3.49,0.007-5.277c-0.034-0.723-0.593-1.31-1.314-1.378c-0.716-0.066-1.378,0.406-1.545,1.11
					c-0.378,1.594-0.831,3.199-1.347,4.771c-0.13,0.397-0.082,0.834,0.132,1.193c0.215,0.361,0.574,0.61,0.988,0.685l1.373,0.248
					C174.987,189.702,175.072,189.709,175.158,189.709z"/>
				<path d="M152.857,169.693c-1.498,0.222-2.864,0.377-4.174,0.472c-0.415,0.03-0.798,0.237-1.049,0.568
					c-0.253,0.33-0.35,0.754-0.268,1.161l0.225,1.129c0.083,0.412,0.339,0.767,0.703,0.976c0.222,0.128,0.47,0.191,0.72,0.191
					c0.161,0,0.322-0.027,0.479-0.081c1.388-0.485,2.79-1.044,4.166-1.657c0.663-0.295,1.006-1.032,0.804-1.729
					C154.26,170.027,153.565,169.595,152.857,169.693z"/>
				<path d="M146.931,166.622c1.391-0.061,2.793-0.174,4.168-0.338c0.721-0.087,1.267-0.69,1.279-1.415
					c0.013-0.725-0.512-1.348-1.229-1.459c-1.367-0.211-2.627-0.449-3.85-0.727c-0.401-0.091-0.83-0.006-1.167,0.237
					c-0.337,0.242-0.555,0.618-0.598,1.03l-0.11,1.075c-0.042,0.419,0.099,0.837,0.388,1.144c0.275,0.291,0.657,0.455,1.055,0.455
					C146.889,166.624,146.91,166.624,146.931,166.622z"/>
				<path d="M146.965,155.081c-0.391,0.132-0.708,0.425-0.869,0.806l-0.403,0.945c-0.166,0.389-0.153,0.831,0.034,1.21
					c0.187,0.379,0.531,0.658,0.94,0.763c1.285,0.329,2.576,0.612,3.843,0.843c0.088,0.016,0.174,0.023,0.26,0.023
					c0.617,0,1.179-0.394,1.377-0.997c0.225-0.688-0.091-1.438-0.741-1.756c-1.097-0.537-2.194-1.116-3.261-1.722
					C147.787,154.99,147.359,154.949,146.965,155.081z"/>
				<path d="M156.304,175.236c-1.329,0.629-2.697,1.213-4.069,1.736c-0.39,0.15-0.697,0.46-0.841,0.851
					c-0.146,0.392-0.115,0.827,0.084,1.194l0.587,1.086c0.2,0.368,0.548,0.634,0.958,0.725c0.104,0.024,0.212,0.035,0.318,0.035
					c0.305,0,0.605-0.096,0.855-0.279c1.249-0.912,2.487-1.904,3.681-2.944c0.545-0.477,0.657-1.282,0.26-1.888
					C157.741,175.148,156.959,174.927,156.304,175.236z"/>
				<path d="M159.646,186c0.416-0.031,0.8-0.24,1.051-0.575c0.985-1.311,1.933-2.706,2.821-4.148
					c0.379-0.616,0.247-1.417-0.311-1.878c-0.558-0.46-1.371-0.442-1.904,0.048c-1.14,1.045-2.351,2.066-3.599,3.035
					c-0.33,0.258-0.534,0.644-0.558,1.062c-0.024,0.417,0.133,0.826,0.432,1.119l0.943,0.926c0.272,0.266,0.637,0.415,1.016,0.415
					C159.574,186.005,159.61,186.003,159.646,186z"/>
				<path d="M166.35,188.936c0.209,0.108,0.438,0.163,0.667,0.163c0.178,0,0.357-0.033,0.527-0.099
					c0.388-0.152,0.692-0.461,0.835-0.854c0.579-1.588,1.099-3.261,1.542-4.97c0.183-0.7-0.18-1.428-0.85-1.704
					c-0.666-0.278-1.438-0.019-1.804,0.606c-0.823,1.402-1.714,2.784-2.647,4.107c-0.241,0.341-0.323,0.773-0.224,1.179
					c0.099,0.408,0.37,0.752,0.742,0.945L166.35,188.936z"/>
				<path d="M151.004,148.496c-0.285-0.299-0.681-0.456-1.095-0.453c-0.412,0.013-0.8,0.2-1.067,0.514l-0.492,0.584
					c-0.275,0.324-0.392,0.752-0.324,1.17c0.069,0.419,0.317,0.786,0.679,1.007c0.835,0.506,1.679,0.987,2.53,1.443
					c0.217,0.118,0.452,0.173,0.685,0.173c0.452,0,0.892-0.21,1.174-0.596c0.426-0.585,0.355-1.395-0.166-1.898
					C152.275,149.809,151.632,149.16,151.004,148.496z"/>
				<path d="M173.435,140.17c0.117,0.028,0.235,0.043,0.349,0.043c0.583,0,1.123-0.351,1.348-0.912
					c0.4-1.003,0.828-1.995,1.281-2.968c0.174-0.372,0.181-0.803,0.018-1.182c-0.161-0.379-0.477-0.671-0.867-0.803l-0.852-0.288
					c-0.402-0.134-0.845-0.089-1.208,0.129c-0.364,0.218-0.615,0.583-0.686,1.003c-0.196,1.157-0.356,2.307-0.475,3.417
					C172.265,139.329,172.732,139.996,173.435,140.17z"/>
				<path d="M179.558,141.265c0.234,0.141,0.493,0.21,0.749,0.21c0.427,0,0.846-0.187,1.129-0.538
					c0.711-0.879,1.449-1.741,2.195-2.564c0.278-0.304,0.412-0.713,0.37-1.124c-0.044-0.411-0.259-0.783-0.593-1.025l-0.758-0.548
					c-0.342-0.247-0.776-0.337-1.191-0.234c-0.412,0.099-0.76,0.374-0.952,0.752c-0.549,1.08-1.064,2.177-1.529,3.256
					C178.69,140.115,178.938,140.891,179.558,141.265z"/>
				<path d="M186.114,144.678c0.28,0,0.562-0.081,0.81-0.246c1.032-0.695,2.074-1.353,3.1-1.951c0.357-0.21,0.608-0.561,0.69-0.966
					c0.081-0.407-0.014-0.827-0.263-1.158l-0.612-0.813c-0.253-0.337-0.643-0.548-1.065-0.575c-0.412-0.014-0.835,0.132-1.13,0.434
					c-0.914,0.935-1.798,1.905-2.634,2.886c-0.469,0.552-0.46,1.367,0.022,1.906C185.316,144.512,185.713,144.678,186.114,144.678z"
					/>
				<path d="M165.21,136.413c0.149,1.107,0.331,2.226,0.546,3.327c0.131,0.685,0.732,1.174,1.422,1.174
					c0.027,0,0.053-0.001,0.08-0.003c0.724-0.04,1.307-0.608,1.367-1.33c0.085-1.048,0.198-2.098,0.341-3.138
					c0.055-0.408-0.065-0.82-0.331-1.135c-0.266-0.314-0.653-0.5-1.064-0.513l-0.88-0.025c-0.414,0.019-0.835,0.164-1.121,0.48
					C165.285,135.566,165.153,135.991,165.21,136.413z"/>
				<path d="M158.282,138.526c-0.178,0.385-0.179,0.83-0.001,1.217c0.476,1.031,0.987,2.058,1.521,3.049
					c0.26,0.482,0.758,0.764,1.278,0.764c0.168,0,0.34-0.03,0.505-0.091c0.679-0.253,1.067-0.969,0.91-1.676
					c-0.231-1.041-0.434-2.087-0.606-3.13c-0.067-0.407-0.303-0.765-0.65-0.985c-0.348-0.222-0.771-0.289-1.17-0.174l-0.86,0.239
					C158.799,137.852,158.46,138.139,158.282,138.526z"/>
				<path d="M153.631,142.176l-0.759,0.486c-0.357,0.229-0.598,0.604-0.654,1.024c-0.059,0.421,0.071,0.846,0.353,1.163
					c0.776,0.871,1.58,1.72,2.389,2.521c0.28,0.279,0.65,0.421,1.021,0.421c0.31,0,0.621-0.099,0.883-0.299
					c0.574-0.442,0.736-1.239,0.378-1.87c-0.538-0.943-1.049-1.903-1.529-2.869c-0.184-0.369-0.516-0.641-0.912-0.752
					C154.402,141.891,153.977,141.956,153.631,142.176z"/>
			</g>
			<g>
				<path d="M201.365,146.042c1.072-0.123,2.151-0.215,3.228-0.279c0.406-0.024,0.783-0.217,1.039-0.532
					c0.258-0.316,0.37-0.724,0.31-1.126l-0.207-1.404c-0.06-0.418-0.302-0.789-0.66-1.014c-0.355-0.227-0.793-0.286-1.198-0.162
					c-1.116,0.34-2.24,0.725-3.344,1.142c-0.692,0.263-1.076,1.007-0.89,1.725l0.152,0.578c0.17,0.643,0.751,1.082,1.402,1.082
					C201.253,146.052,201.309,146.049,201.365,146.042z"/>
				<path d="M199.831,186.547c0.146,0.048,0.299,0.072,0.451,0.072c0.25,0,0.498-0.066,0.721-0.191l1.481-0.848
					c0.362-0.208,0.617-0.562,0.701-0.973c0.082-0.41-0.016-0.835-0.271-1.167c-0.708-0.928-1.451-1.835-2.206-2.7
					c-0.494-0.566-1.338-0.665-1.948-0.216l-0.733,0.535c-0.575,0.42-0.76,1.194-0.438,1.829c0.479,0.941,0.936,1.9,1.367,2.872
					C199.123,186.134,199.44,186.419,199.831,186.547z"/>
				<path d="M191.095,193.436c0.247,0.176,0.541,0.267,0.838,0.267c0.107,0,0.213-0.011,0.317-0.035l1.679-0.377
					c0.408-0.091,0.756-0.354,0.956-0.719c0.199-0.367,0.232-0.802,0.089-1.194c-0.397-1.087-0.833-2.167-1.292-3.206
					c-0.304-0.69-1.087-1.031-1.798-0.785l-0.882,0.303c-0.673,0.231-1.078,0.915-0.958,1.616c0.178,1.032,0.328,2.074,0.449,3.116
					C190.541,192.83,190.759,193.198,191.095,193.436z"/>
				<path d="M184.736,193.12c-0.086-0.748-0.703-1.322-1.487-1.282l-0.963,0.031c-0.711,0.022-1.3,0.558-1.392,1.263
					c-0.131,1.026-0.293,2.054-0.483,3.076c-0.075,0.404,0.026,0.82,0.277,1.148c0.25,0.325,0.627,0.529,1.036,0.562l1.737,0.135
					c0.039,0.003,0.075,0.004,0.114,0.004c0.377,0,0.741-0.147,1.012-0.412c0.299-0.29,0.458-0.697,0.436-1.113
					C184.964,195.4,184.867,194.251,184.736,193.12z"/>
				<path d="M205.01,176.852c0.269,0.307,0.657,0.487,1.068,0.494c0.007,0,0.016,0,0.022,0c0.401,0,0.785-0.166,1.06-0.46
					l1.148-1.229c0.286-0.306,0.426-0.721,0.384-1.137c-0.042-0.416-0.263-0.794-0.606-1.037c-0.932-0.66-1.919-1.308-2.934-1.932
					c-0.639-0.392-1.472-0.231-1.921,0.37l-0.521,0.7c-0.427,0.572-0.374,1.369,0.124,1.879
					C203.579,175.261,204.307,176.049,205.01,176.852z"/>
				<path d="M209.252,166.707c0.392-0.116,0.718-0.391,0.897-0.759l0.723-1.49c0.185-0.378,0.194-0.817,0.029-1.204
					c-0.166-0.386-0.49-0.682-0.891-0.81c-1.092-0.35-2.236-0.674-3.404-0.964c-0.715-0.171-1.466,0.219-1.716,0.92l-0.279,0.783
					c-0.24,0.675,0.048,1.425,0.679,1.765c0.945,0.508,1.881,1.045,2.798,1.605c0.23,0.14,0.491,0.212,0.756,0.212
					C208.981,166.765,209.118,166.745,209.252,166.707z"/>
				<path d="M208.578,151.452l-0.527-0.003c-0.991,0-1.999,0.037-3.021,0.096c-0.743,0.043-1.334,0.641-1.365,1.385l-0.031,0.731
					c-0.032,0.719,0.47,1.351,1.175,1.487c1.06,0.203,2.114,0.438,3.161,0.7c0.116,0.028,0.234,0.042,0.352,0.042
					c0.283,0,0.562-0.083,0.803-0.242c0.34-0.227,0.568-0.585,0.63-0.987l0.236-1.538c0.064-0.415-0.055-0.837-0.326-1.157
					C209.393,151.644,208.997,151.458,208.578,151.452z"/>
				<path d="M170.473,198.762l1.591,0.63c0.171,0.068,0.353,0.102,0.534,0.102c0.228,0,0.456-0.054,0.663-0.16
					c0.372-0.191,0.642-0.534,0.745-0.939c0.269-1.083,0.51-2.199,0.714-3.317c0.135-0.739-0.317-1.46-1.042-1.658l-0.898-0.247
					c-0.685-0.194-1.408,0.148-1.704,0.796c-0.423,0.93-0.875,1.857-1.354,2.773c-0.19,0.364-0.217,0.792-0.074,1.177
					C169.79,198.304,170.091,198.61,170.473,198.762z"/>
				<path d="M139.349,175.503c1.068-0.16,2.168-0.36,3.266-0.595c0.727-0.154,1.22-0.834,1.139-1.573l-0.075-0.693
					c-0.078-0.715-0.667-1.266-1.386-1.293c-1.018-0.04-2.03-0.102-3.024-0.191c-0.421-0.042-0.807,0.1-1.106,0.374
					c-0.3,0.274-0.472,0.66-0.473,1.067l-0.004,1.466c-0.001,0.424,0.183,0.826,0.502,1.102c0.266,0.23,0.604,0.353,0.948,0.353
					C139.206,175.519,139.278,175.513,139.349,175.503z"/>
				<path d="M136.068,161.793l-0.425,1.361c-0.128,0.405-0.07,0.844,0.155,1.204c0.226,0.36,0.598,0.602,1.017,0.663
					c1.08,0.159,2.191,0.286,3.3,0.38c0.041,0.004,0.082,0.006,0.123,0.006c0.687,0,1.287-0.486,1.422-1.173l0.123-0.63
					c0.139-0.707-0.265-1.409-0.946-1.647c-0.932-0.324-1.88-0.683-2.838-1.073c-0.377-0.154-0.8-0.142-1.167,0.031
					C136.465,161.086,136.188,161.405,136.068,161.793z"/>
				<path d="M138.612,150.455c-0.401,0.058-0.758,0.28-0.987,0.613l-0.774,1.127c-0.24,0.351-0.316,0.789-0.204,1.2
					c0.11,0.411,0.397,0.752,0.782,0.933c1.023,0.483,2.052,0.93,3.061,1.331c0.174,0.069,0.355,0.102,0.535,0.102
					c0.519,0,1.019-0.282,1.279-0.766l0.279-0.521c0.341-0.639,0.16-1.432-0.428-1.858c-0.824-0.598-1.634-1.217-2.421-1.854
					C139.418,150.507,139.013,150.399,138.612,150.455z"/>
				<path d="M142.554,181.327c-0.209,0.351-0.258,0.773-0.139,1.162l0.454,1.49c0.122,0.403,0.415,0.734,0.802,0.904
					c0.185,0.082,0.385,0.123,0.585,0.123c0.212,0,0.425-0.047,0.622-0.141c0.979-0.464,1.973-0.974,2.956-1.517
					c0.654-0.361,0.927-1.157,0.632-1.842l-0.309-0.719c-0.284-0.657-1-1.009-1.698-0.831c-0.973,0.253-1.958,0.484-2.951,0.689
					C143.108,180.729,142.762,180.976,142.554,181.327z"/>
				<path d="M153.041,187.027c-0.858,0.527-1.737,1.036-2.631,1.523c-0.36,0.196-0.619,0.535-0.715,0.931
					c-0.097,0.397-0.022,0.816,0.208,1.155l0.922,1.361c0.237,0.348,0.612,0.578,1.03,0.627c0.056,0.007,0.115,0.01,0.171,0.01
					c0.359,0,0.707-0.134,0.976-0.377c0.799-0.727,1.606-1.51,2.399-2.329c0.52-0.536,0.547-1.38,0.064-1.95l-0.559-0.657
					C154.442,186.78,153.654,186.653,153.041,187.027z"/>
				<path d="M160.813,197.33c0.259,0.21,0.58,0.32,0.908,0.32c0.084,0,0.17-0.007,0.254-0.022c0.412-0.073,0.773-0.322,0.989-0.681
					c0.571-0.95,1.122-1.937,1.638-2.935c0.346-0.666,0.125-1.488-0.51-1.89l-0.749-0.476c-0.6-0.385-1.389-0.273-1.861,0.26
					c-0.674,0.758-1.371,1.505-2.091,2.237c-0.287,0.293-0.437,0.692-0.413,1.102c0.024,0.41,0.219,0.789,0.539,1.045
					L160.813,197.33z"/>
				<path d="M144.21,141.773c-0.226-0.334-0.582-0.558-0.979-0.619c-0.399-0.061-0.804,0.045-1.122,0.297l-0.879,0.697
					c-0.333,0.265-0.534,0.663-0.547,1.089c-0.014,0.426,0.16,0.837,0.476,1.123c0.833,0.752,1.69,1.48,2.547,2.161
					c0.265,0.211,0.585,0.316,0.904,0.316c0.369,0,0.738-0.141,1.019-0.419l0.24-0.237c0.517-0.511,0.575-1.326,0.137-1.906
					C145.384,143.453,144.785,142.617,144.21,141.773z"/>
				<path d="M177.308,130.74c0.491,0,0.967-0.252,1.238-0.695c0.555-0.911,1.137-1.807,1.741-2.687
					c0.228-0.333,0.307-0.745,0.218-1.139c-0.09-0.394-0.337-0.732-0.685-0.935l-1.128-0.656c-0.368-0.214-0.813-0.259-1.214-0.113
					c-0.401,0.141-0.719,0.453-0.871,0.851c-0.41,1.079-0.791,2.19-1.135,3.297c-0.216,0.704,0.128,1.458,0.801,1.755l0.448,0.198
					C176.911,130.7,177.111,130.74,177.308,130.74z"/>
				<path d="M185.644,132.997c0.273,0.239,0.615,0.358,0.954,0.358c0.341,0,0.684-0.12,0.957-0.361
					c0.807-0.708,1.635-1.398,2.475-2.059c0.317-0.25,0.517-0.622,0.55-1.024c0.032-0.404-0.106-0.801-0.38-1.099l-0.916-0.994
					c-0.288-0.312-0.697-0.5-1.123-0.466c-0.425,0.016-0.82,0.218-1.083,0.552c-0.718,0.913-1.418,1.865-2.079,2.83
					c-0.415,0.607-0.311,1.429,0.242,1.912L185.644,132.997z"/>
				<path d="M199.212,136.468c0.152-0.377,0.138-0.799-0.036-1.166L198.552,134c-0.183-0.382-0.524-0.666-0.934-0.775
					c-0.408-0.109-0.845-0.037-1.195,0.204c-0.959,0.657-1.917,1.362-2.848,2.096c-0.581,0.457-0.723,1.277-0.333,1.905l0.327,0.525
					c0.272,0.438,0.744,0.684,1.231,0.684c0.198,0,0.397-0.04,0.587-0.125c0.985-0.436,1.985-0.848,2.993-1.229
					C198.76,137.141,199.062,136.845,199.212,136.468z"/>
				<path d="M167.557,130.913c0.058,0.007,0.116,0.01,0.172,0.01c0.656,0,1.241-0.445,1.405-1.096
					c0.259-1.025,0.544-2.046,0.854-3.055c0.119-0.385,0.072-0.801-0.128-1.15c-0.201-0.35-0.538-0.599-0.93-0.691l-1.239-0.288
					c-0.412-0.09-0.851-0.004-1.194,0.251c-0.341,0.255-0.553,0.647-0.58,1.072c-0.072,1.168-0.108,2.331-0.103,3.457
					c0.003,0.732,0.551,1.348,1.279,1.435L167.557,130.913z"/>
				<path d="M159.555,128.111c-0.296-0.275-0.683-0.416-1.093-0.384l-1.276,0.092c-0.425,0.03-0.816,0.247-1.066,0.592
					c-0.252,0.344-0.338,0.782-0.238,1.197c0.275,1.129,0.582,2.239,0.917,3.303c0.192,0.614,0.759,1.016,1.382,1.016
					c0.088,0,0.176-0.007,0.264-0.024l0.47-0.086c0.716-0.132,1.225-0.775,1.187-1.503c-0.056-1.047-0.084-2.096-0.084-3.14
					C160.018,128.771,159.85,128.386,159.555,128.111z"/>
				<path d="M151.158,134.287c-0.118-0.384-0.391-0.703-0.754-0.878c-0.365-0.176-0.779-0.193-1.157-0.047l-1.172,0.455
					c-0.397,0.154-0.706,0.476-0.846,0.879c-0.138,0.402-0.093,0.847,0.123,1.212c0.577,0.972,1.192,1.935,1.824,2.859
					c0.279,0.408,0.732,0.632,1.199,0.632c0.225,0,0.454-0.052,0.668-0.164l0.416-0.216c0.646-0.336,0.943-1.101,0.691-1.786
					C151.795,136.257,151.462,135.273,151.158,134.287z"/>
			</g>
		</g>
	</g>
	<g>
		<g>
			<polygon fill="#E4007E" points="10.368,9.257 10.368,11.901 10.368,47.117 12.789,47.117 12.789,11.901 45.023,11.901 
				45.023,9.257 12.789,9.257 			"/>
		</g>
		<g>
			<polygon fill="#E4007E" points="798.871,7.511 798.871,10.155 798.871,45.371 796.433,45.371 796.433,10.155 763.97,10.155 
				763.97,7.511 796.433,7.511 			"/>
		</g>
		<polygon fill="#E4007E" points="10.24,314.74 12.661,314.74 44.894,314.74 44.894,312.095 12.661,312.095 12.661,276.88 
			10.24,276.88 10.24,312.095 		"/>
		<polygon fill="#E4007E" points="799,312.994 796.562,312.994 764.099,312.994 764.099,310.35 796.562,310.35 796.562,275.134 
			799,275.134 799,310.35 		"/>
	</g>
</g>
<g>
</g>
<g>
</g>
<g>
</g>
<g>
</g>
<g>
</g>
<g>
</g>
<g>
</g>
<g>
</g>
<g>
</g>
<g>
</g>
<g>
</g>
<g>
</g>
<g>
</g>
<g>
</g>
<g>
</g>
</svg>
