<?xml version="1.0" encoding="iso-8859-1"?>
<!-- Generator: Adobe Illustrator 23.0.1, SVG Export Plug-In . SVG Version: 6.00 Build 0)  -->
<svg version="1.1" id="Layer_1" xmlns="http://www.w3.org/2000/svg" xmlns:xlink="http://www.w3.org/1999/xlink" x="0px" y="0px"
	 width="210px" height="72px" viewBox="0 0 210 72" enable-background="new 0 0 210 72" xml:space="preserve">
<g>
	<g>
		<g>
			<path fill="#FF0000" d="M164.416,7.366c-1.756-1.756-4-2.634-6.439-2.634s-4.683,0.976-6.439,2.634l-0.878,0.878l-0.878-0.878
				c-1.756-1.756-4-2.634-6.439-2.634s-4.683,0.976-6.439,2.634c-1.756,1.756-2.634,4-2.634,6.439s0.976,4.683,2.634,6.439
				l13.073,13.073c0.195,0.195,0.39,0.293,0.683,0.293c0.293,0,0.488-0.098,0.683-0.293l13.073-13.073
				c1.756-1.756,2.634-4,2.634-6.439S166.074,9.025,164.416,7.366z"/>
		</g>
		<g>
			<g>
				<g>
					<g transform="matrix( 1, 0, 0, 1, 0,0) ">
						<g>
							<g id="Layer0_0_FILL_9_">
								<path fill="#FFFFFF" d="M34.562,44.537h-4.781l-8,21.073h4.683l1.658-4.683h7.902l1.658,4.683h4.781L34.562,44.537
									 M32.123,49.708L32.123,49.708l2.732,7.707h-5.463L32.123,49.708 M20.318,45.513c-1.073-0.683-2.439-0.976-4.195-0.976H6.66
									V65.61h4.683v-7.512h4.878c1.756,0,3.122-0.39,4.195-0.976c1.073-0.683,1.854-1.463,2.341-2.537
									c0.488-0.976,0.781-2.146,0.683-3.219c0-1.171-0.195-2.244-0.683-3.22C22.172,46.976,21.391,46.196,20.318,45.513
									 M11.245,48.147h3.61c0.683,0,1.366,0.098,2.049,0.195c0.585,0.195,1.073,0.488,1.463,0.878
									c0.39,0.488,0.585,1.171,0.585,2.049s-0.195,1.561-0.585,2.049c-0.39,0.488-0.878,0.78-1.463,0.878
									c-0.585,0.195-1.268,0.195-2.049,0.195h-3.61V48.147 M48.221,45.513c-1.561,0.976-2.732,2.244-3.512,4
									c-0.781,1.659-1.268,3.61-1.268,5.659c0,2.049,0.39,3.902,1.268,5.561c0.781,1.659,1.951,2.927,3.512,3.902
									s3.415,1.463,5.561,1.463c1.756,0,3.22-0.39,4.585-1.073c1.366-0.683,2.439-1.659,3.22-3.024
									c0.781-1.268,1.268-2.829,1.463-4.585h-4.488c-0.195,1.366-0.683,2.537-1.463,3.415c-0.781,0.878-1.951,1.268-3.317,1.366
									c-1.366,0-2.537-0.39-3.317-1.073c-0.878-0.683-1.463-1.561-1.854-2.634c-0.39-1.073-0.585-2.244-0.585-3.415
									c0-1.268,0.195-2.439,0.585-3.512c0.39-1.073,0.976-1.951,1.854-2.634s1.951-1.073,3.317-1.073
									c0.781,0,1.463,0.195,2.146,0.488s1.171,0.78,1.658,1.268c0.39,0.585,0.683,1.171,0.781,1.854h4.488
									c-0.195-1.659-0.781-3.024-1.561-4.098c-0.878-1.171-1.951-2.049-3.22-2.537c-1.268-0.585-2.732-0.878-4.293-0.878
									C51.538,44.049,49.684,44.537,48.221,45.513 M141.782,44.049c-2.146,0-4.098,0.488-5.561,1.463
									c-1.561,0.976-2.732,2.244-3.512,4c-0.781,1.659-1.268,3.61-1.268,5.659c0,2.049,0.39,3.902,1.268,5.561
									c0.781,1.659,1.951,2.927,3.512,3.902c1.561,0.976,3.415,1.463,5.561,1.463c2.146,0,4-0.488,5.561-1.463
									c1.561-0.976,2.732-2.244,3.512-3.902c0.781-1.659,1.268-3.512,1.268-5.561c0-2.146-0.39-4-1.268-5.659
									c-0.781-1.659-1.951-3.024-3.512-4C145.879,44.537,144.026,44.049,141.782,44.049 M136.611,51.659
									c0.39-1.073,0.976-1.951,1.854-2.634s1.951-1.073,3.317-1.073s2.439,0.39,3.317,1.073c0.878,0.683,1.463,1.561,1.854,2.634
									c0.39,1.073,0.585,2.244,0.585,3.512c0,1.171-0.195,2.341-0.585,3.415c-0.39,1.073-0.976,1.951-1.854,2.634
									c-0.878,0.683-1.951,1.073-3.317,1.073s-2.537-0.39-3.317-1.073c-0.878-0.683-1.463-1.561-1.854-2.634
									c-0.39-1.073-0.585-2.244-0.585-3.415C136.123,53.903,136.221,52.732,136.611,51.659 M107.147,48.44v-3.902H91.343V65.61h16
									v-3.902H96.026v-5.171h10.244v-3.61H96.026V48.44H107.147 M114.367,45.513c-1.561,0.976-2.732,2.244-3.512,4
									c-0.781,1.659-1.268,3.61-1.268,5.659c0,2.049,0.39,3.902,1.268,5.561c0.781,1.659,1.951,2.927,3.512,3.902
									s3.415,1.463,5.561,1.463c1.756,0,3.22-0.39,4.585-1.073c1.366-0.683,2.439-1.659,3.22-3.024
									c0.781-1.268,1.268-2.829,1.463-4.585h-4.488c-0.195,1.366-0.683,2.537-1.463,3.415c-0.781,0.878-1.951,1.268-3.317,1.366
									c-1.366,0-2.537-0.39-3.317-1.073c-0.878-0.683-1.463-1.561-1.854-2.634c-0.39-1.073-0.585-2.244-0.585-3.415
									c0-1.268,0.195-2.439,0.585-3.512s0.976-1.951,1.854-2.634s1.951-1.073,3.317-1.073c0.781,0,1.463,0.195,2.146,0.488
									c0.683,0.293,1.171,0.78,1.658,1.268c0.39,0.585,0.683,1.171,0.781,1.854h4.488c-0.195-1.659-0.781-3.024-1.561-4.098
									c-0.878-1.171-1.951-2.049-3.22-2.537c-1.268-0.585-2.732-0.878-4.293-0.878C117.782,44.049,115.928,44.537,114.367,45.513z
									"/>
							</g>
						</g>
					</g>
					<path fill="#00CEEA" d="M65.099,49.708c0.585-0.098,1.268,0,2.049,0.195c1.366,0.488,2.146,1.366,2.146,2.732v4.976
						c0,2.829,0.781,4.976,2.341,6.341c1.561,1.366,3.805,2.146,6.634,2.146s5.073-0.683,6.634-2.146
						c1.561-1.366,2.341-3.512,2.341-6.341V44.537h-4.683V57.61c0,1.073-0.098,1.854-0.39,2.537
						c-0.293,0.683-0.683,1.171-1.366,1.561c-0.683,0.293-1.561,0.488-2.634,0.488c-1.268,0-2.146-0.195-2.829-0.683
						c-0.683-0.488-1.073-0.976-1.268-1.659c-0.195-0.683-0.293-1.463-0.293-2.244v-5.073c-0.098-1.073-0.488-2.146-1.171-3.22
						c-1.561-2.244-4.098-3.317-7.707-3.415v3.805L65.099,49.708L65.099,49.708z"/>
				</g>
				<g>
					<path fill="#FFFFFF" d="M164.513,46.586h3.512l6.146,16.39l6.146-16.39h3.512v19.512h-2.439V49.903h-0.098l-6.049,16.195
						h-2.244l-6.049-16.195h-0.098v16.195h-2.439L164.513,46.586L164.513,46.586z"/>
					<path fill="#FFFFFF" d="M191.635,58.683l-4.878-6.732h3.024l3.415,4.976l3.512-4.976h2.829l-4.878,6.537l5.463,7.61h-3.024
						l-3.902-5.854l-3.902,5.854h-2.829L191.635,58.683z"/>
					<path fill="#FFFFFF" d="M202.562,63.074h3.024v3.024h-3.024V63.074z"/>
				</g>
			</g>
		</g>
	</g>
	<g>
		<g>
			<path fill="#FFFFFF" d="M7.05,14.879h3.415l5.951,16l6.049-16h3.415v19.024H23.44V18.098h-0.098l-5.951,15.805h-2.146
				L9.294,18.098H9.196v15.805H6.757V14.879H7.05z"/>
			<path fill="#FFFFFF" d="M41.977,33.805c-0.39,0.195-0.878,0.39-1.658,0.39c-1.171,0-1.951-0.683-1.951-2.146
				c-1.268,1.463-2.927,2.146-4.878,2.146c-2.537,0-4.585-1.073-4.585-3.902c0-3.122,2.341-3.805,4.683-4.195
				c2.537-0.488,4.585-0.293,4.585-2.049c0-1.951-1.658-2.244-3.024-2.244c-1.951,0-3.317,0.585-3.415,2.634h-2.244
				c0.098-3.415,2.732-4.585,5.854-4.585c2.439,0,5.171,0.585,5.171,3.805v7.024c0,1.073,0,1.561,0.683,1.561
				c0.195,0,0.39,0,0.683-0.098L41.977,33.805L41.977,33.805z M38.269,26.781c-0.878,0.683-2.537,0.683-4.098,0.976
				c-1.463,0.293-2.732,0.78-2.732,2.439c0,1.463,1.268,2.049,2.634,2.049c3.024,0,4.195-1.854,4.195-3.122V26.781z"/>
			<path fill="#FFFFFF" d="M56.318,33.903h-2.244v-1.854h-0.098c-0.781,1.561-2.537,2.146-4.39,2.146
				c-4.195,0-6.341-3.317-6.341-7.22s2.049-7.122,6.244-7.122c1.366,0,3.415,0.488,4.488,2.146h0.098v-7.024h2.244V33.903z
				 M49.977,32.244c3.024,0,4.195-2.634,4.195-5.171c0-2.732-1.268-5.171-4.293-5.171c-3.122,0-4.098,2.634-4.098,5.268
				C45.684,29.708,47.05,32.244,49.977,32.244z"/>
			<path fill="#FFFFFF" d="M71.538,29.513c-0.585,3.024-2.829,4.683-5.854,4.683c-4.39,0-6.439-3.024-6.634-7.22
				c0-4.098,2.732-7.122,6.439-7.122c4.878,0,6.341,4.585,6.244,7.902H61.489c-0.098,2.439,1.268,4.488,4.293,4.488
				c1.854,0,3.122-0.878,3.61-2.732L71.538,29.513L71.538,29.513z M69.391,25.708c-0.098-2.146-1.756-3.902-4-3.902
				c-2.341,0-3.805,1.756-3.902,3.902H69.391z"/>
			<path fill="#FFFFFF" d="M95.147,33.903h-2.439l-2.829-10.927h-0.098L87.05,33.903h-2.439l-4.39-13.756h2.537l3.122,11.22h0.098
				l2.732-11.22h2.439l2.829,11.22h0.098l3.122-11.22h2.341L95.147,33.903z"/>
			<path fill="#FFFFFF" d="M104.026,17.61h-2.244v-2.732h2.244V17.61z M101.782,20.147h2.244v13.756h-2.244V20.147z"/>
			<path fill="#FFFFFF" d="M110.66,20.147h2.732v1.951h-2.732v8.488c0,1.073,0.293,1.268,1.658,1.268h1.073v1.951h-1.756
				c-2.341,0-3.317-0.488-3.317-3.024v-8.78h-2.341v-1.951h2.341v-4.098h2.244v4.195H110.66z"/>
			<path fill="#FFFFFF" d="M115.928,14.879h2.244v7.22h0.098c0.781-1.659,2.732-2.341,4.293-2.341c3.61,0,4.781,2.049,4.781,5.073
				v9.073h-2.244v-9.268c0-1.659-1.073-2.732-2.829-2.732c-2.732,0-4.098,1.854-4.098,4.293v7.805h-2.244V14.879z"/>
			<path fill="#FFFFFF" d="M184.904,17.61h-2.244v-2.732h2.244V17.61z M182.562,20.147h2.244v13.756h-2.244V20.147z"/>
			<path fill="#FFFFFF" d="M188.416,20.147h2.146v2.146h0.098c0.976-1.659,2.537-2.537,4.488-2.537c3.61,0,4.781,2.049,4.781,5.073
				v9.073h-2.244v-9.268c0-1.659-1.073-2.732-2.829-2.732c-2.732,0-4.098,1.854-4.098,4.293v7.805h-2.244L188.416,20.147
				L188.416,20.147z"/>
			<path fill="#FFFFFF" d="M206.66,23.074h-2.927v-2.927h2.927V23.074z M203.635,30.879h2.927v2.927h-2.927V30.879z"/>
		</g>
	</g>
</g>
<g>
</g>
<g>
</g>
<g>
</g>
<g>
</g>
<g>
</g>
<g>
</g>
<g>
</g>
<g>
</g>
<g>
</g>
<g>
</g>
<g>
</g>
<g>
</g>
<g>
</g>
<g>
</g>
<g>
</g>
</svg>
